<svg viewBox="0 0 315 190" fill="none" xmlns="http://www.w3.org/2000/svg">
<g clip-path="url(#clip0_460_47)">
<path d="M79 160.5H315" stroke="#919191" stroke-opacity="0.8" stroke-dasharray="2 2"/>
<path d="M256.271 86L255.256 76.5455H256.419L257.121 84.2457H257.213L260.5 76.5455H261.793L262.531 84.2457H262.624L265.874 76.5455H267.037L262.882 86H261.7L260.869 78.4659H260.795L257.453 86H256.271ZM269.013 86.1477C268.36 86.1477 267.814 85.9923 267.374 85.6815C266.934 85.3706 266.623 84.9351 266.441 84.375C266.263 83.8149 266.234 83.1624 266.354 82.4176C266.471 81.6913 266.703 81.0588 267.051 80.5202C267.402 79.9786 267.837 79.56 268.357 79.2646C268.88 78.966 269.456 78.8168 270.084 78.8168C270.736 78.8168 271.281 78.9737 271.718 79.2876C272.158 79.5985 272.469 80.0355 272.651 80.5987C272.832 81.1589 272.863 81.8144 272.743 82.5653C272.626 83.2855 272.391 83.9149 272.037 84.4535C271.686 84.989 271.25 85.406 270.73 85.7045C270.213 86 269.641 86.1477 269.013 86.1477ZM269.031 85.169C269.53 85.169 269.962 85.0413 270.328 84.7859C270.698 84.5304 270.996 84.1934 271.224 83.7749C271.455 83.3563 271.61 82.9039 271.69 82.4176C271.764 81.956 271.761 81.5266 271.681 81.1296C271.601 80.7295 271.43 80.4079 271.169 80.1648C270.907 79.9186 270.539 79.7955 270.065 79.7955C269.567 79.7955 269.131 79.9247 268.759 80.1832C268.39 80.4418 268.091 80.7818 267.863 81.2035C267.636 81.6251 267.483 82.0791 267.406 82.5653C267.332 83.027 267.334 83.4563 267.411 83.8533C267.491 84.2473 267.662 84.5658 267.923 84.8089C268.188 85.049 268.557 85.169 269.031 85.169ZM273.843 86L275.025 78.9091H276.077L275.892 80.017H275.985C276.197 79.6385 276.485 79.3446 276.848 79.1353C277.214 78.9229 277.628 78.8168 278.09 78.8168C278.552 78.8168 278.922 78.9229 279.203 79.1353C279.483 79.3446 279.678 79.6385 279.789 80.017H279.863C280.103 79.6477 280.423 79.3554 280.823 79.1399C281.226 78.9245 281.682 78.8168 282.189 78.8168C282.817 78.8168 283.3 79.0153 283.639 79.4123C283.981 79.8093 284.082 80.4233 283.944 81.2543L283.15 86H282.06L282.854 81.2543C282.937 80.728 282.854 80.354 282.605 80.1325C282.359 79.9078 282.042 79.7955 281.654 79.7955C281.155 79.7955 280.744 79.9447 280.421 80.2433C280.098 80.5418 279.9 80.9219 279.826 81.3835L279.05 86H277.942L278.755 81.1435C278.819 80.7372 278.742 80.411 278.524 80.1648C278.305 79.9186 277.988 79.7955 277.573 79.7955C277.29 79.7955 277.013 79.8724 276.742 80.0263C276.471 80.1771 276.239 80.3864 276.045 80.6541C275.851 80.9188 275.726 81.2235 275.671 81.5682L274.932 86H273.843ZM287.21 86.1662C286.76 86.1662 286.367 86.0816 286.028 85.9123C285.689 85.7399 285.439 85.4922 285.275 85.169C285.112 84.8428 285.068 84.4489 285.142 83.9872C285.212 83.581 285.349 83.2517 285.552 82.9993C285.756 82.7438 286.002 82.5438 286.291 82.3991C286.583 82.2514 286.897 82.1422 287.233 82.0714C287.571 81.9975 287.908 81.9406 288.244 81.9006C288.681 81.8452 289.036 81.8021 289.31 81.7713C289.584 81.7405 289.79 81.6897 289.929 81.619C290.067 81.5482 290.152 81.4266 290.183 81.2543V81.2173C290.257 80.7649 290.197 80.4125 290.003 80.1602C289.809 79.9047 289.463 79.777 288.964 79.777C288.447 79.777 288.015 79.8909 287.667 80.1186C287.319 80.3464 287.062 80.5895 286.896 80.848L285.936 80.4787C286.188 80.0478 286.49 79.7124 286.84 79.4723C287.191 79.2292 287.559 79.0599 287.944 78.9645C288.329 78.866 288.699 78.8168 289.056 78.8168C289.284 78.8168 289.541 78.8445 289.827 78.8999C290.114 78.9522 290.381 79.0614 290.631 79.2276C290.883 79.3938 291.072 79.6446 291.198 79.9801C291.328 80.3156 291.346 80.7649 291.254 81.3281L290.478 86H289.389L289.555 85.0398H289.5C289.401 85.1937 289.25 85.3583 289.047 85.5337C288.847 85.7092 288.593 85.8584 288.285 85.9815C287.981 86.1046 287.622 86.1662 287.21 86.1662ZM287.524 85.1875C287.955 85.1875 288.332 85.1029 288.655 84.9336C288.981 84.7643 289.243 84.5458 289.44 84.2781C289.64 84.0103 289.764 83.7287 289.813 83.4332L289.98 82.4361C289.924 82.4915 289.815 82.5423 289.652 82.5884C289.489 82.6315 289.304 82.67 289.098 82.7038C288.895 82.7346 288.696 82.7623 288.502 82.7869C288.312 82.8085 288.158 82.8269 288.041 82.8423C287.751 82.8793 287.476 82.9393 287.214 83.0224C286.956 83.1024 286.737 83.224 286.559 83.3871C286.383 83.5471 286.274 83.7656 286.231 84.0426C286.166 84.4212 286.257 84.7074 286.503 84.9013C286.75 85.0921 287.09 85.1875 287.524 85.1875ZM294.258 81.7344L293.556 86H292.467L293.649 78.9091H294.701L294.517 80.017H294.609C294.83 79.657 295.131 79.3677 295.509 79.1491C295.888 78.9276 296.345 78.8168 296.88 78.8168C297.354 78.8168 297.754 78.9152 298.08 79.1122C298.41 79.3061 298.642 79.6016 298.778 79.9986C298.916 80.3925 298.936 80.8911 298.838 81.4943L298.08 86H296.991L297.73 81.5682C297.822 81.0142 297.75 80.5803 297.513 80.2663C297.279 79.9524 296.908 79.7955 296.4 79.7955C296.049 79.7955 295.724 79.8709 295.426 80.0217C295.131 80.1725 294.88 80.3925 294.673 80.6818C294.47 80.9711 294.332 81.322 294.258 81.7344ZM254.554 102L256.124 92.5455H257.268L256.567 96.7557H261.608L262.31 92.5455H263.455L261.885 102H260.74L261.442 97.7713H256.401L255.699 102H254.554ZM266.956 102.148C266.304 102.148 265.757 101.992 265.317 101.681C264.877 101.371 264.566 100.935 264.385 100.375C264.206 99.8149 264.177 99.1624 264.297 98.4176C264.414 97.6913 264.646 97.0588 264.994 96.5202C265.345 95.9786 265.78 95.56 266.301 95.2646C266.824 94.966 267.399 94.8168 268.027 94.8168C268.68 94.8168 269.224 94.9737 269.661 95.2876C270.102 95.5985 270.412 96.0355 270.594 96.5987C270.776 97.1589 270.806 97.8144 270.686 98.5653C270.569 99.2855 270.334 99.9149 269.98 100.453C269.629 100.989 269.194 101.406 268.673 101.705C268.156 102 267.584 102.148 266.956 102.148ZM266.975 101.169C267.473 101.169 267.906 101.041 268.272 100.786C268.641 100.53 268.94 100.193 269.167 99.7749C269.398 99.3563 269.554 98.9039 269.634 98.4176C269.708 97.956 269.704 97.5266 269.624 97.1296C269.544 96.7295 269.374 96.4079 269.112 96.1648C268.85 95.9186 268.483 95.7955 268.009 95.7955C267.51 95.7955 267.075 95.9247 266.702 96.1832C266.333 96.4418 266.034 96.7818 265.807 97.2035C265.579 97.6251 265.427 98.0791 265.35 98.5653C265.276 99.027 265.277 99.4563 265.354 99.8533C265.434 100.247 265.605 100.566 265.867 100.809C266.131 101.049 266.501 101.169 266.975 101.169ZM274.445 92.5455L272.876 102H271.786L273.356 92.5455H274.445ZM277.53 92.5455L275.961 102H274.871L276.441 92.5455H277.53ZM280.911 102.148C280.23 102.148 279.669 101.997 279.226 101.695C278.782 101.391 278.473 100.966 278.298 100.421C278.122 99.8733 278.095 99.2363 278.215 98.5099C278.335 97.7836 278.573 97.1435 278.93 96.5895C279.287 96.0324 279.732 95.5985 280.264 95.2876C280.797 94.9737 281.381 94.8168 282.019 94.8168C282.388 94.8168 282.743 94.8783 283.085 95.0014C283.427 95.1245 283.722 95.3246 283.971 95.6016C284.221 95.8755 284.395 96.2386 284.493 96.6911C284.591 97.1435 284.585 97.7005 284.475 98.3622L284.401 98.8239H278.935L279.082 97.8821H283.44C283.511 97.482 283.493 97.125 283.385 96.8111C283.28 96.4972 283.097 96.2494 282.836 96.0678C282.577 95.8862 282.249 95.7955 281.852 95.7955C281.443 95.7955 281.061 95.9062 280.707 96.1278C280.354 96.3464 280.058 96.6233 279.821 96.9588C279.584 97.2912 279.436 97.6297 279.378 97.9744L279.249 98.7869C279.156 99.3748 279.17 99.8426 279.29 100.19C279.413 100.538 279.627 100.789 279.932 100.943C280.237 101.094 280.618 101.169 281.077 101.169C281.369 101.169 281.638 101.129 281.885 101.049C282.131 100.966 282.351 100.843 282.545 100.68C282.739 100.513 282.902 100.307 283.034 100.061L284.031 100.357C283.862 100.714 283.624 101.027 283.316 101.298C283.011 101.566 282.654 101.775 282.245 101.926C281.839 102.074 281.394 102.148 280.911 102.148ZM285.548 102L286.73 94.9091H287.782L287.598 95.9801H287.671C287.856 95.6293 288.138 95.3446 288.516 95.1261C288.895 94.9076 289.296 94.7983 289.721 94.7983C289.804 94.7983 289.904 94.7998 290.021 94.8029C290.138 94.8029 290.229 94.8075 290.294 94.8168L290.109 95.9247C290.072 95.9155 289.989 95.9016 289.86 95.8832C289.73 95.8616 289.592 95.8509 289.444 95.8509C289.099 95.8509 288.781 95.9232 288.489 96.0678C288.196 96.2094 287.951 96.4064 287.755 96.6587C287.558 96.908 287.431 97.1927 287.376 97.5128L286.637 102H285.548ZM290.41 102L291.592 94.9091H292.681L291.5 102H290.41ZM292.469 93.7088C292.257 93.7088 292.074 93.6365 291.92 93.4918C291.769 93.3472 291.694 93.1733 291.694 92.9702C291.694 92.767 291.769 92.5932 291.92 92.4485C292.074 92.3039 292.257 92.2315 292.469 92.2315C292.681 92.2315 292.863 92.3039 293.014 92.4485C293.168 92.5932 293.245 92.767 293.245 92.9702C293.245 93.1733 293.168 93.3472 293.014 93.4918C292.863 93.6365 292.681 93.7088 292.469 93.7088ZM295.286 97.7344L294.585 102H293.495L294.677 94.9091H295.729L295.545 96.017H295.637C295.859 95.657 296.159 95.3677 296.537 95.1491C296.916 94.9276 297.373 94.8168 297.908 94.8168C298.382 94.8168 298.783 94.9152 299.109 95.1122C299.438 95.3061 299.67 95.6016 299.806 95.9986C299.944 96.3925 299.964 96.8911 299.866 97.4943L299.109 102H298.019L298.758 97.5682C298.85 97.0142 298.778 96.5803 298.541 96.2663C298.307 95.9524 297.936 95.7955 297.428 95.7955C297.078 95.7955 296.753 95.8709 296.454 96.0217C296.159 96.1725 295.908 96.3925 295.702 96.6818C295.499 96.9711 295.36 97.322 295.286 97.7344ZM303.519 104.807C302.989 104.807 302.546 104.739 302.189 104.604C301.832 104.471 301.546 104.296 301.33 104.077C301.115 103.862 300.952 103.631 300.841 103.385L301.82 102.776C301.894 102.905 301.989 103.053 302.106 103.219C302.223 103.388 302.4 103.534 302.637 103.657C302.877 103.783 303.214 103.847 303.648 103.847C304.217 103.847 304.716 103.708 305.144 103.431C305.571 103.154 305.836 102.72 305.938 102.129L306.159 100.689H306.067C305.968 100.818 305.831 100.978 305.656 101.169C305.481 101.357 305.245 101.525 304.95 101.672C304.654 101.817 304.276 101.889 303.814 101.889C303.239 101.889 302.746 101.754 302.337 101.483C301.927 101.212 301.634 100.818 301.455 100.301C301.28 99.7841 301.253 99.1562 301.377 98.4176C301.497 97.6913 301.727 97.0588 302.069 96.5202C302.414 95.9786 302.838 95.56 303.343 95.2646C303.848 94.966 304.399 94.8168 304.996 94.8168C305.458 94.8168 305.811 94.8937 306.058 95.0476C306.307 95.1984 306.489 95.3707 306.602 95.5646C306.716 95.7554 306.802 95.9124 306.861 96.0355H306.972L307.156 94.9091H308.209L307.009 102.203C306.907 102.812 306.687 103.308 306.349 103.69C306.01 104.074 305.595 104.356 305.102 104.534C304.61 104.716 304.082 104.807 303.519 104.807ZM304.091 100.911C304.525 100.911 304.911 100.81 305.25 100.61C305.591 100.41 305.875 100.123 306.099 99.7472C306.324 99.3717 306.479 98.9223 306.566 98.3991C306.652 97.8883 306.646 97.4374 306.547 97.0465C306.449 96.6557 306.262 96.3494 305.988 96.1278C305.718 95.9062 305.362 95.7955 304.922 95.7955C304.457 95.7955 304.056 95.9124 303.717 96.1463C303.382 96.3802 303.109 96.6941 302.9 97.0881C302.691 97.482 302.546 97.919 302.466 98.3991C302.386 98.8916 302.389 99.3271 302.475 99.7056C302.561 100.081 302.737 100.377 303.002 100.592C303.269 100.804 303.633 100.911 304.091 100.911ZM263.233 111.5H262.107C262.094 111.171 262.027 110.881 261.903 110.632C261.78 110.383 261.614 110.174 261.405 110.004C261.199 109.832 260.962 109.703 260.694 109.616C260.426 109.53 260.14 109.487 259.835 109.487C259.25 109.487 258.696 109.636 258.173 109.935C257.65 110.23 257.202 110.666 256.83 111.241C256.458 111.814 256.204 112.516 256.068 113.347C255.933 114.153 255.953 114.832 256.128 115.382C256.304 115.933 256.594 116.35 257.001 116.634C257.407 116.917 257.89 117.058 258.45 117.058C258.773 117.058 259.09 117.015 259.401 116.929C259.715 116.843 260.008 116.715 260.278 116.546C260.552 116.373 260.795 116.163 261.008 115.913C261.223 115.661 261.393 115.372 261.516 115.045H262.661C262.491 115.529 262.262 115.961 261.973 116.343C261.686 116.724 261.356 117.049 260.98 117.317C260.605 117.581 260.2 117.783 259.766 117.922C259.332 118.06 258.881 118.129 258.413 118.129C257.595 118.129 256.898 117.929 256.322 117.529C255.75 117.126 255.34 116.557 255.094 115.821C254.851 115.082 254.813 114.208 254.979 113.199C255.145 112.214 255.463 111.365 255.934 110.651C256.405 109.933 256.982 109.383 257.665 108.998C258.349 108.61 259.09 108.416 259.891 108.416C260.371 108.416 260.812 108.485 261.216 108.624C261.619 108.762 261.97 108.966 262.268 109.233C262.567 109.498 262.799 109.821 262.965 110.203C263.134 110.581 263.224 111.014 263.233 111.5ZM263.864 118L265.046 110.909H266.099L265.914 111.98H265.988C266.172 111.629 266.454 111.345 266.833 111.126C267.211 110.908 267.613 110.798 268.038 110.798C268.121 110.798 268.221 110.8 268.338 110.803C268.455 110.803 268.545 110.808 268.61 110.817L268.425 111.925C268.388 111.915 268.305 111.902 268.176 111.883C268.047 111.862 267.908 111.851 267.761 111.851C267.416 111.851 267.097 111.923 266.805 112.068C266.513 112.209 266.268 112.406 266.071 112.659C265.874 112.908 265.748 113.193 265.692 113.513L264.954 118H263.864ZM271.465 118.148C270.785 118.148 270.223 117.997 269.78 117.695C269.337 117.391 269.028 116.966 268.852 116.421C268.677 115.873 268.649 115.236 268.769 114.51C268.889 113.784 269.128 113.143 269.485 112.589C269.842 112.032 270.287 111.598 270.819 111.288C271.351 110.974 271.936 110.817 272.573 110.817C272.943 110.817 273.298 110.878 273.64 111.001C273.981 111.125 274.277 111.325 274.526 111.602C274.775 111.875 274.949 112.239 275.048 112.691C275.146 113.143 275.14 113.701 275.029 114.362L274.955 114.824H269.489L269.637 113.882H273.995C274.066 113.482 274.047 113.125 273.94 112.811C273.835 112.497 273.652 112.249 273.39 112.068C273.132 111.886 272.804 111.795 272.407 111.795C271.998 111.795 271.616 111.906 271.262 112.128C270.908 112.346 270.613 112.623 270.376 112.959C270.139 113.291 269.991 113.63 269.933 113.974L269.803 114.787C269.711 115.375 269.725 115.843 269.845 116.19C269.968 116.538 270.182 116.789 270.487 116.943C270.791 117.094 271.173 117.169 271.631 117.169C271.924 117.169 272.193 117.129 272.439 117.049C272.686 116.966 272.906 116.843 273.1 116.68C273.293 116.513 273.457 116.307 273.589 116.061L274.586 116.357C274.417 116.714 274.178 117.027 273.87 117.298C273.566 117.566 273.209 117.775 272.799 117.926C272.393 118.074 271.948 118.148 271.465 118.148ZM279.057 118.148C278.377 118.148 277.815 117.997 277.372 117.695C276.929 117.391 276.62 116.966 276.444 116.421C276.269 115.873 276.241 115.236 276.361 114.51C276.481 113.784 276.72 113.143 277.077 112.589C277.434 112.032 277.878 111.598 278.411 111.288C278.943 110.974 279.528 110.817 280.165 110.817C280.534 110.817 280.89 110.878 281.231 111.001C281.573 111.125 281.869 111.325 282.118 111.602C282.367 111.875 282.541 112.239 282.639 112.691C282.738 113.143 282.732 113.701 282.621 114.362L282.547 114.824H277.081L277.229 113.882H281.587C281.658 113.482 281.639 113.125 281.532 112.811C281.427 112.497 281.244 112.249 280.982 112.068C280.724 111.886 280.396 111.795 279.999 111.795C279.59 111.795 279.208 111.906 278.854 112.128C278.5 112.346 278.205 112.623 277.968 112.959C277.731 113.291 277.583 113.63 277.524 113.974L277.395 114.787C277.303 115.375 277.317 115.843 277.437 116.19C277.56 116.538 277.774 116.789 278.078 116.943C278.383 117.094 278.765 117.169 279.223 117.169C279.516 117.169 279.785 117.129 280.031 117.049C280.277 116.966 280.497 116.843 280.691 116.68C280.885 116.513 281.048 116.307 281.181 116.061L282.178 116.357C282.009 116.714 281.77 117.027 281.462 117.298C281.158 117.566 280.801 117.775 280.391 117.926C279.985 118.074 279.54 118.148 279.057 118.148ZM285.135 115.415L285.338 114.067H285.559L289.197 110.909H290.545L286.686 114.251H286.593L285.135 115.415ZM283.694 118L285.264 108.545H286.353L284.784 118H283.694ZM288.2 118L286.021 114.491L286.907 113.734L289.585 118H288.2Z" fill="#AC1919"/>
<path d="M85.5409 4.28837L85.7071 3.27275H92.798L92.6318 4.28837H89.6588L88.2554 12.7273H87.1105L88.5139 4.28837H85.5409ZM94.6388 8.46167L93.9371 12.7273H92.8477L94.4173 3.27275H95.5067L94.9343 6.74434H95.0266C95.2482 6.37502 95.5437 6.08265 95.913 5.86721C96.2854 5.65177 96.7532 5.54406 97.3164 5.54406C97.7965 5.54406 98.2012 5.641 98.5305 5.83489C98.8629 6.02571 99.0968 6.31962 99.2322 6.71664C99.3707 7.11058 99.3907 7.61224 99.2923 8.22161L98.5352 12.7273H97.4457L98.1843 8.29548C98.2766 7.73227 98.2012 7.29678 97.9581 6.98901C97.718 6.67817 97.3441 6.52275 96.8363 6.52275C96.4793 6.52275 96.1469 6.59815 95.8391 6.74896C95.5344 6.89976 95.2759 7.11981 95.0636 7.40911C94.8543 7.69841 94.7127 8.04926 94.6388 8.46167ZM103.483 12.875C102.803 12.875 102.241 12.7242 101.798 12.4226C101.355 12.1179 101.045 11.6932 100.87 11.1485C100.695 10.6006 100.667 9.96356 100.787 9.23724C100.907 8.51091 101.145 7.87076 101.502 7.31678C101.859 6.75973 102.304 6.32578 102.837 6.01494C103.369 5.70102 103.954 5.54406 104.591 5.54406C104.96 5.54406 105.316 5.60561 105.657 5.72871C105.999 5.85182 106.294 6.05187 106.544 6.32886C106.793 6.60277 106.967 6.96593 107.065 7.41835C107.164 7.87076 107.158 8.42782 107.047 9.08951L106.973 9.55116H101.507L101.655 8.6094H106.013C106.083 8.2093 106.065 7.85229 105.957 7.53837C105.853 7.22445 105.67 6.9767 105.408 6.79512C105.149 6.61354 104.822 6.52275 104.425 6.52275C104.015 6.52275 103.634 6.63354 103.28 6.85514C102.926 7.07365 102.63 7.35064 102.393 7.6861C102.156 8.01849 102.009 8.35703 101.95 8.70173L101.821 9.51423C101.729 10.1021 101.742 10.5699 101.862 10.9176C101.986 11.2654 102.199 11.5162 102.504 11.6701C102.809 11.8209 103.19 11.8963 103.649 11.8963C103.941 11.8963 104.211 11.8563 104.457 11.7763C104.703 11.6932 104.923 11.5701 105.117 11.407C105.311 11.2408 105.474 11.0346 105.606 10.7884L106.604 11.0838C106.434 11.4408 106.196 11.7548 105.888 12.0256C105.583 12.2933 105.226 12.5026 104.817 12.6534C104.411 12.8012 103.966 12.875 103.483 12.875ZM112.81 4.28837L112.977 3.27275H120.068L119.901 4.28837H116.928L115.525 12.7273H114.38L115.783 4.28837H112.81ZM121.908 8.46167L121.207 12.7273H120.117L121.687 3.27275H122.776L122.204 6.74434H122.296C122.518 6.37502 122.813 6.08265 123.183 5.86721C123.555 5.65177 124.023 5.54406 124.586 5.54406C125.066 5.54406 125.471 5.641 125.8 5.83489C126.132 6.02571 126.366 6.31962 126.502 6.71664C126.64 7.11058 126.66 7.61224 126.562 8.22161L125.805 12.7273H124.715L125.454 8.29548C125.546 7.73227 125.471 7.29678 125.228 6.98901C124.988 6.67817 124.614 6.52275 124.106 6.52275C123.749 6.52275 123.416 6.59815 123.109 6.74896C122.804 6.89976 122.545 7.11981 122.333 7.40911C122.124 7.69841 121.982 8.04926 121.908 8.46167ZM127.798 12.7273L128.98 5.63639H130.069L128.887 12.7273H127.798ZM129.857 4.4361C129.644 4.4361 129.461 4.36378 129.307 4.21913C129.157 4.07448 129.081 3.90059 129.081 3.69746C129.081 3.49434 129.157 3.32045 129.307 3.1758C129.461 3.03115 129.644 2.95883 129.857 2.95883C130.069 2.95883 130.251 3.03115 130.402 3.1758C130.555 3.32045 130.632 3.49434 130.632 3.69746C130.632 3.90059 130.555 4.07448 130.402 4.21913C130.251 4.36378 130.069 4.4361 129.857 4.4361ZM132.674 8.46167L131.972 12.7273H130.883L132.065 5.63639H133.117L132.933 6.74434H133.025C133.246 6.38426 133.547 6.09496 133.925 5.87644C134.304 5.65485 134.761 5.54406 135.296 5.54406C135.77 5.54406 136.17 5.64254 136.496 5.83951C136.826 6.0334 137.058 6.32886 137.194 6.72587C137.332 7.11981 137.352 7.61839 137.254 8.22161L136.496 12.7273H135.407L136.146 8.29548C136.238 7.7415 136.166 7.30755 135.929 6.99363C135.695 6.67971 135.324 6.52275 134.816 6.52275C134.465 6.52275 134.141 6.59815 133.842 6.74896C133.547 6.89976 133.296 7.11981 133.089 7.40911C132.886 7.69841 132.748 8.04926 132.674 8.46167ZM140.906 15.5341C140.377 15.5341 139.934 15.4664 139.577 15.331C139.22 15.1986 138.934 15.0232 138.718 14.8047C138.503 14.5893 138.34 14.3585 138.229 14.1122L139.207 13.5029C139.281 13.6321 139.377 13.7799 139.494 13.946C139.611 14.1153 139.788 14.2615 140.025 14.3846C140.265 14.5108 140.602 14.5739 141.036 14.5739C141.605 14.5739 142.104 14.4354 142.531 14.1584C142.959 13.8814 143.224 13.4475 143.325 12.8566L143.547 11.4162H143.455C143.356 11.5455 143.219 11.7055 143.044 11.8963C142.868 12.0841 142.633 12.2518 142.337 12.3995C142.042 12.5442 141.663 12.6165 141.202 12.6165C140.626 12.6165 140.134 12.4811 139.725 12.2102C139.315 11.9394 139.021 11.5455 138.843 11.0284C138.667 10.5114 138.641 9.88354 138.764 9.14491C138.884 8.41858 139.115 7.78613 139.457 7.24754C139.801 6.70587 140.226 6.28731 140.731 5.99185C141.236 5.69332 141.787 5.54406 142.384 5.54406C142.845 5.54406 143.199 5.621 143.445 5.77488C143.695 5.92569 143.876 6.09803 143.99 6.29193C144.104 6.48274 144.19 6.6397 144.249 6.76281H144.359L144.544 5.63639H145.597L144.396 12.9304C144.295 13.5398 144.075 14.0353 143.736 14.4169C143.398 14.8016 142.982 15.0832 142.49 15.2617C141.997 15.4433 141.47 15.5341 140.906 15.5341ZM141.479 11.6378C141.913 11.6378 142.299 11.5378 142.638 11.3377C142.979 11.1377 143.262 10.8499 143.487 10.4745C143.712 10.099 143.867 9.64964 143.953 9.12644C144.039 8.61555 144.033 8.16468 143.935 7.77381C143.836 7.38295 143.65 7.07673 143.376 6.85514C143.105 6.63354 142.75 6.52275 142.31 6.52275C141.845 6.52275 141.443 6.6397 141.105 6.8736C140.769 7.1075 140.497 7.42142 140.288 7.81536C140.078 8.2093 139.934 8.64633 139.854 9.12644C139.774 9.61887 139.777 10.0544 139.863 10.4329C139.949 10.8084 140.125 11.1038 140.389 11.3193C140.657 11.5316 141.02 11.6378 141.479 11.6378ZM152.355 7.22445L151.321 7.50144C151.284 7.33525 151.22 7.17521 151.127 7.02133C151.038 6.86437 150.899 6.73665 150.712 6.63816C150.527 6.5366 150.275 6.48582 149.955 6.48582C149.521 6.48582 149.144 6.58584 148.824 6.78589C148.504 6.98286 148.32 7.23369 148.274 7.53837C148.228 7.80613 148.29 8.02003 148.459 8.18006C148.628 8.3401 148.911 8.4709 149.308 8.57247L150.324 8.83099C150.933 8.98795 151.367 9.22339 151.626 9.53731C151.887 9.84815 151.977 10.2529 151.894 10.7514C151.826 11.1577 151.649 11.5209 151.363 11.8409C151.076 12.161 150.71 12.4134 150.264 12.598C149.818 12.7827 149.321 12.875 148.773 12.875C148.043 12.875 147.468 12.7181 147.046 12.4041C146.625 12.0871 146.4 11.6286 146.372 11.0284L147.462 10.7699C147.489 11.1485 147.625 11.4347 147.868 11.6286C148.114 11.8194 148.459 11.9148 148.902 11.9148C149.41 11.9148 149.833 11.8071 150.172 11.5916C150.51 11.3731 150.703 11.1115 150.749 10.8068C150.795 10.5576 150.746 10.3498 150.601 10.1836C150.459 10.0174 150.213 9.89278 149.862 9.80968L148.736 9.53269C148.108 9.37573 147.668 9.13568 147.416 8.81252C147.166 8.48937 147.083 8.08312 147.166 7.59377C147.234 7.19368 147.406 6.83975 147.683 6.53198C147.963 6.22422 148.314 5.98262 148.736 5.8072C149.161 5.63177 149.622 5.54406 150.121 5.54406C150.823 5.54406 151.347 5.69794 151.695 6.0057C152.043 6.31039 152.263 6.71664 152.355 7.22445ZM157.892 4.28837L158.058 3.27275H165.149L164.982 4.28837H162.009L160.606 12.7273H159.461L160.865 4.28837H157.892ZM166.989 8.46167L166.288 12.7273H165.198L166.768 3.27275H167.857L167.285 6.74434H167.377C167.599 6.37502 167.894 6.08265 168.264 5.86721C168.636 5.65177 169.104 5.54406 169.667 5.54406C170.147 5.54406 170.552 5.641 170.881 5.83489C171.214 6.02571 171.447 6.31962 171.583 6.71664C171.721 7.11058 171.741 7.61224 171.643 8.22161L170.886 12.7273H169.796L170.535 8.29548C170.627 7.73227 170.552 7.29678 170.309 6.98901C170.069 6.67817 169.695 6.52275 169.187 6.52275C168.83 6.52275 168.497 6.59815 168.19 6.74896C167.885 6.89976 167.627 7.11981 167.414 7.40911C167.205 7.69841 167.063 8.04926 166.989 8.46167ZM175.833 12.875C175.153 12.875 174.592 12.7242 174.148 12.4226C173.705 12.1179 173.396 11.6932 173.221 11.1485C173.045 10.6006 173.017 9.96356 173.137 9.23724C173.257 8.51091 173.496 7.87076 173.853 7.31678C174.21 6.75973 174.655 6.32578 175.187 6.01494C175.72 5.70102 176.304 5.54406 176.941 5.54406C177.311 5.54406 177.666 5.60561 178.008 5.72871C178.349 5.85182 178.645 6.05187 178.894 6.32886C179.143 6.60277 179.317 6.96593 179.416 7.41835C179.514 7.87076 179.508 8.42782 179.397 9.08951L179.324 9.55116H173.858L174.005 8.6094H178.363C178.434 8.2093 178.416 7.85229 178.308 7.53837C178.203 7.22445 178.02 6.9767 177.759 6.79512C177.5 6.61354 177.172 6.52275 176.775 6.52275C176.366 6.52275 175.984 6.63354 175.63 6.85514C175.276 7.07365 174.981 7.35064 174.744 7.6861C174.507 8.01849 174.359 8.35703 174.301 8.70173L174.172 9.51423C174.079 10.1021 174.093 10.5699 174.213 10.9176C174.336 11.2654 174.55 11.5162 174.855 11.6701C175.159 11.8209 175.541 11.8963 176 11.8963C176.292 11.8963 176.561 11.8563 176.808 11.7763C177.054 11.6932 177.274 11.5701 177.468 11.407C177.662 11.2408 177.825 11.0346 177.957 10.7884L178.954 11.0838C178.785 11.4408 178.546 11.7548 178.239 12.0256C177.934 12.2933 177.577 12.5026 177.168 12.6534C176.761 12.8012 176.317 12.875 175.833 12.875ZM180.523 15.3864C180.338 15.3864 180.175 15.371 180.033 15.3402C179.895 15.3125 179.799 15.2848 179.747 15.2571L180.19 14.2969C180.443 14.3646 180.667 14.3846 180.864 14.3569C181.064 14.3323 181.254 14.2353 181.432 14.0661C181.614 13.8999 181.803 13.6383 182 13.2813L182.305 12.7273L180.883 5.63639H182.018L183.034 11.3054H183.108L186.007 5.63639H187.235L182.886 13.7522C182.683 14.1307 182.46 14.44 182.217 14.6801C181.974 14.9201 181.711 15.0971 181.427 15.211C181.144 15.3279 180.843 15.3864 180.523 15.3864ZM199.974 6.22729H198.848C198.835 5.89799 198.768 5.60869 198.645 5.3594C198.522 5.11011 198.355 4.90083 198.146 4.73156C197.94 4.55921 197.703 4.42995 197.435 4.34377C197.167 4.2576 196.881 4.21451 196.576 4.21451C195.992 4.21451 195.438 4.36378 194.915 4.66231C194.391 4.95776 193.944 5.39325 193.571 5.96877C193.199 6.54122 192.945 7.24292 192.809 8.07389C192.674 8.88023 192.694 9.55885 192.869 10.1098C193.045 10.6607 193.336 11.0777 193.742 11.3608C194.148 11.644 194.631 11.7855 195.191 11.7855C195.515 11.7855 195.832 11.7424 196.142 11.6563C196.456 11.5701 196.749 11.4424 197.02 11.2731C197.294 11.1008 197.537 10.8899 197.749 10.6406C197.964 10.3883 198.134 10.099 198.257 9.77275H199.402C199.232 10.2559 199.003 10.6884 198.714 11.07C198.428 11.4516 198.097 11.7763 197.721 12.0441C197.346 12.3087 196.941 12.5103 196.507 12.6488C196.073 12.7873 195.622 12.8566 195.155 12.8566C194.336 12.8566 193.639 12.6565 193.063 12.2564C192.491 11.8532 192.082 11.2839 191.835 10.5483C191.592 9.80968 191.554 8.93563 191.72 7.92616C191.886 6.94131 192.205 6.09188 192.676 5.37786C193.146 4.66077 193.723 4.10987 194.407 3.72516C195.09 3.33738 195.832 3.14349 196.632 3.14349C197.112 3.14349 197.554 3.21273 197.957 3.35123C198.36 3.48972 198.711 3.69285 199.009 3.9606C199.308 4.22528 199.54 4.54844 199.706 4.93006C199.876 5.30862 199.965 5.74103 199.974 6.22729ZM202.674 12.8935C202.224 12.8935 201.83 12.8089 201.492 12.6396C201.153 12.4672 200.902 12.2195 200.739 11.8963C200.576 11.5701 200.532 11.1762 200.605 10.7145C200.676 10.3083 200.813 9.97895 201.016 9.72658C201.219 9.47114 201.466 9.27109 201.755 9.12644C202.047 8.97872 202.361 8.86946 202.697 8.79867C203.035 8.72481 203.372 8.66787 203.708 8.62786C204.145 8.57247 204.5 8.52938 204.774 8.4986C205.048 8.46783 205.254 8.41704 205.393 8.34626C205.531 8.27547 205.616 8.1539 205.647 7.98156V7.94462C205.721 7.49221 205.661 7.13982 205.467 6.88745C205.273 6.63201 204.926 6.50428 204.428 6.50428C203.911 6.50428 203.478 6.61816 203.131 6.8459C202.783 7.07365 202.526 7.31678 202.36 7.57531L201.4 7.20599C201.652 6.77512 201.953 6.43965 202.304 6.1996C202.655 5.95646 203.023 5.78719 203.408 5.69178C203.792 5.5933 204.163 5.54406 204.52 5.54406C204.748 5.54406 205.005 5.57176 205.291 5.62715C205.577 5.67947 205.845 5.78873 206.094 5.95492C206.347 6.12112 206.536 6.37194 206.662 6.70741C206.792 7.04287 206.81 7.49221 206.718 8.05542L205.942 12.7273H204.853L205.019 11.7671H204.963C204.865 11.921 204.714 12.0856 204.511 12.261C204.311 12.4365 204.057 12.5857 203.749 12.7088C203.445 12.8319 203.086 12.8935 202.674 12.8935ZM202.988 11.9148C203.418 11.9148 203.795 11.8302 204.119 11.6609C204.445 11.4916 204.706 11.2731 204.903 11.0053C205.103 10.7376 205.228 10.456 205.277 10.1605L205.444 9.16337C205.388 9.21877 205.279 9.26955 205.116 9.31572C204.953 9.35881 204.768 9.39728 204.562 9.43113C204.359 9.46191 204.16 9.48961 203.966 9.51423C203.775 9.53577 203.622 9.55424 203.505 9.56962C203.215 9.60656 202.94 9.66657 202.678 9.74967C202.42 9.82969 202.201 9.95125 202.023 10.1144C201.847 10.2744 201.738 10.4929 201.695 10.7699C201.63 11.1485 201.721 11.4347 201.967 11.6286C202.214 11.8194 202.554 11.9148 202.988 11.9148ZM207.931 12.7273L209.112 5.63639H210.165L209.98 6.70741H210.054C210.239 6.35656 210.521 6.07187 210.899 5.85336C211.278 5.63485 211.679 5.52559 212.104 5.52559C212.187 5.52559 212.287 5.52713 212.404 5.53021C212.521 5.53021 212.612 5.53482 212.676 5.54406L212.492 6.65201C212.455 6.64278 212.372 6.62893 212.242 6.61046C212.113 6.58892 211.975 6.57815 211.827 6.57815C211.482 6.57815 211.164 6.65047 210.871 6.79512C210.579 6.93669 210.334 7.13366 210.137 7.38603C209.94 7.63532 209.814 7.92 209.759 8.24008L209.02 12.7273H207.931ZM212.793 12.7273L213.975 5.63639H215.027L214.843 6.70741H214.917C215.101 6.35656 215.383 6.07187 215.761 5.85336C216.14 5.63485 216.542 5.52559 216.966 5.52559C217.049 5.52559 217.149 5.52713 217.266 5.53021C217.383 5.53021 217.474 5.53482 217.539 5.54406L217.354 6.65201C217.317 6.64278 217.234 6.62893 217.105 6.61046C216.975 6.58892 216.837 6.57815 216.689 6.57815C216.345 6.57815 216.026 6.65047 215.734 6.79512C215.441 6.93669 215.197 7.13366 215 7.38603C214.803 7.63532 214.676 7.92 214.621 8.24008L213.882 12.7273H212.793ZM217.655 12.7273L218.837 5.63639H219.927L218.745 12.7273H217.655ZM219.714 4.4361C219.502 4.4361 219.319 4.36378 219.165 4.21913C219.014 4.07448 218.939 3.90059 218.939 3.69746C218.939 3.49434 219.014 3.32045 219.165 3.1758C219.319 3.03115 219.502 2.95883 219.714 2.95883C219.927 2.95883 220.108 3.03115 220.259 3.1758C220.413 3.32045 220.49 3.49434 220.49 3.69746C220.49 3.90059 220.413 4.07448 220.259 4.21913C220.108 4.36378 219.927 4.4361 219.714 4.4361ZM223.695 12.875C223.015 12.875 222.453 12.7242 222.01 12.4226C221.567 12.1179 221.257 11.6932 221.082 11.1485C220.906 10.6006 220.879 9.96356 220.999 9.23724C221.119 8.51091 221.357 7.87076 221.714 7.31678C222.071 6.75973 222.516 6.32578 223.048 6.01494C223.581 5.70102 224.166 5.54406 224.803 5.54406C225.172 5.54406 225.528 5.60561 225.869 5.72871C226.211 5.85182 226.506 6.05187 226.756 6.32886C227.005 6.60277 227.179 6.96593 227.277 7.41835C227.376 7.87076 227.369 8.42782 227.259 9.08951L227.185 9.55116H221.719L221.867 8.6094H226.225C226.295 8.2093 226.277 7.85229 226.169 7.53837C226.065 7.22445 225.881 6.9767 225.62 6.79512C225.361 6.61354 225.034 6.52275 224.637 6.52275C224.227 6.52275 223.846 6.63354 223.492 6.85514C223.138 7.07365 222.842 7.35064 222.605 7.6861C222.368 8.01849 222.221 8.35703 222.162 8.70173L222.033 9.51423C221.941 10.1021 221.954 10.5699 222.074 10.9176C222.198 11.2654 222.411 11.5162 222.716 11.6701C223.021 11.8209 223.402 11.8963 223.861 11.8963C224.153 11.8963 224.423 11.8563 224.669 11.7763C224.915 11.6932 225.135 11.5701 225.329 11.407C225.523 11.2408 225.686 11.0346 225.818 10.7884L226.816 11.0838C226.646 11.4408 226.408 11.7548 226.1 12.0256C225.795 12.2933 225.438 12.5026 225.029 12.6534C224.623 12.8012 224.178 12.875 223.695 12.875ZM231 12.875C230.406 12.875 229.908 12.7258 229.505 12.4272C229.101 12.1256 228.817 11.7009 228.651 11.1531C228.487 10.6022 228.467 9.95125 228.591 9.20031C228.717 8.45551 228.952 7.80921 229.297 7.26139C229.645 6.71356 230.071 6.29039 230.576 5.99185C231.08 5.69332 231.631 5.54406 232.228 5.54406C232.69 5.54406 233.042 5.621 233.286 5.77488C233.532 5.92569 233.71 6.09803 233.821 6.29193C233.932 6.48274 234.016 6.6397 234.075 6.76281H234.167L234.749 3.27275H235.838L234.269 12.7273H233.216L233.401 11.6378H233.272C233.17 11.7671 233.029 11.9302 232.847 12.1272C232.665 12.321 232.425 12.4949 232.127 12.6488C231.831 12.7996 231.456 12.875 231 12.875ZM231.268 11.8963C231.705 11.8963 232.096 11.7825 232.441 11.5547C232.788 11.3239 233.078 11.0053 233.309 10.5991C233.539 10.1898 233.699 9.71735 233.789 9.18184C233.878 8.65248 233.875 8.1893 233.779 7.79228C233.684 7.39219 233.501 7.08134 233.23 6.85975C232.959 6.63508 232.601 6.52275 232.154 6.52275C231.696 6.52275 231.297 6.64124 230.959 6.87822C230.62 7.11212 230.345 7.43066 230.132 7.83383C229.92 8.23392 229.772 8.68326 229.689 9.18184C229.606 9.68658 229.605 10.1451 229.685 10.5576C229.765 10.9669 229.934 11.2931 230.192 11.5362C230.454 11.7763 230.813 11.8963 231.268 11.8963Z" fill="black"/>
<path d="M307.079 37.9822C307.416 38.0751 307.749 37.7955 307.82 37.3578L308.986 30.2243C309.058 29.7866 308.843 29.3563 308.505 29.2635C308.167 29.1706 307.836 29.4503 307.765 29.888L306.728 36.2288L301.84 34.8838C301.503 34.791 301.171 35.0705 301.1 35.5084C301.028 35.9461 301.243 36.3761 301.58 36.469L307.079 37.9822ZM240 10.2823C253.937 24.2545 266.802 23.0092 278.037 22.402C283.67 22.0975 288.835 21.9578 293.597 23.8606C298.323 25.749 302.697 29.6717 306.686 37.6312L307.732 36.748C303.602 28.5027 298.997 24.3229 293.965 22.3119C288.968 20.3154 283.595 20.4796 277.985 20.7828C266.737 21.3908 254.307 22.5762 240.764 9L240 10.2823Z" fill="black" fill-opacity="0.4"/>
<path d="M98.7585 178.136H101.034L103.438 184H103.54L105.943 178.136H108.219V186.864H106.429V181.183H106.357L104.098 186.821H102.879L100.621 181.162H100.548V186.864H98.7585V178.136ZM118.839 182.5C118.839 183.452 118.658 184.261 118.298 184.929C117.94 185.597 117.451 186.106 116.832 186.459C116.215 186.808 115.522 186.983 114.752 186.983C113.977 186.983 113.281 186.807 112.664 186.454C112.048 186.102 111.56 185.592 111.203 184.925C110.845 184.257 110.666 183.449 110.666 182.5C110.666 181.548 110.845 180.739 111.203 180.071C111.56 179.403 112.048 178.895 112.664 178.545C113.281 178.193 113.977 178.017 114.752 178.017C115.522 178.017 116.215 178.193 116.832 178.545C117.451 178.895 117.94 179.403 118.298 180.071C118.658 180.739 118.839 181.548 118.839 182.5ZM116.968 182.5C116.968 181.883 116.876 181.364 116.691 180.94C116.509 180.517 116.252 180.196 115.92 179.977C115.587 179.758 115.198 179.649 114.752 179.649C114.306 179.649 113.917 179.758 113.585 179.977C113.252 180.196 112.994 180.517 112.809 180.94C112.627 181.364 112.536 181.883 112.536 182.5C112.536 183.116 112.627 183.636 112.809 184.06C112.994 184.483 113.252 184.804 113.585 185.023C113.917 185.241 114.306 185.351 114.752 185.351C115.198 185.351 115.587 185.241 115.92 185.023C116.252 184.804 116.509 184.483 116.691 184.06C116.876 183.636 116.968 183.116 116.968 182.5ZM121.286 186.864V178.136H124.729C125.388 178.136 125.95 178.254 126.416 178.49C126.885 178.723 127.242 179.054 127.486 179.483C127.733 179.909 127.857 180.41 127.857 180.987C127.857 181.567 127.732 182.065 127.482 182.483C127.232 182.898 126.87 183.216 126.395 183.437C125.923 183.659 125.352 183.77 124.682 183.77H122.377V182.287H124.384C124.736 182.287 125.029 182.239 125.262 182.142C125.495 182.045 125.668 181.901 125.781 181.707C125.898 181.514 125.956 181.274 125.956 180.987C125.956 180.697 125.898 180.453 125.781 180.254C125.668 180.055 125.493 179.905 125.257 179.803C125.024 179.697 124.73 179.645 124.375 179.645H123.131V186.864H121.286ZM125.999 182.892L128.168 186.864H126.131L124.009 182.892H125.999ZM130.241 186.864V178.136H136.121V179.658H132.086V181.737H135.819V183.258H132.086V185.342H136.138V186.864H130.241ZM144.03 186.864H142.053L145.065 178.136H147.443L150.452 186.864H148.475L146.288 180.131H146.22L144.03 186.864ZM143.906 183.433H148.577V184.874H143.906V183.433ZM157.117 180.646C157.083 180.303 156.937 180.035 156.679 179.845C156.42 179.655 156.069 179.56 155.626 179.56C155.325 179.56 155.071 179.602 154.863 179.687C154.656 179.77 154.497 179.885 154.386 180.033C154.278 180.18 154.224 180.348 154.224 180.535C154.218 180.692 154.251 180.828 154.322 180.945C154.396 181.061 154.497 181.162 154.625 181.247C154.752 181.329 154.9 181.402 155.068 181.464C155.235 181.524 155.414 181.575 155.605 181.618L156.389 181.805C156.769 181.891 157.119 182.004 157.437 182.146C157.755 182.288 158.031 182.463 158.264 182.67C158.497 182.878 158.677 183.122 158.805 183.403C158.936 183.685 159.002 184.007 159.005 184.371C159.002 184.905 158.866 185.368 158.596 185.76C158.329 186.149 157.943 186.452 157.437 186.668C156.934 186.881 156.328 186.987 155.617 186.987C154.913 186.987 154.299 186.879 153.777 186.663C153.257 186.447 152.85 186.128 152.558 185.704C152.268 185.278 152.116 184.751 152.102 184.124H153.887C153.907 184.416 153.991 184.66 154.139 184.856C154.289 185.05 154.49 185.196 154.74 185.295C154.992 185.392 155.278 185.44 155.596 185.44C155.909 185.44 156.18 185.395 156.41 185.304C156.643 185.213 156.823 185.087 156.951 184.925C157.079 184.763 157.143 184.577 157.143 184.366C157.143 184.17 157.085 184.006 156.968 183.872C156.855 183.739 156.687 183.625 156.465 183.531C156.247 183.437 155.978 183.352 155.66 183.276L154.71 183.037C153.974 182.858 153.393 182.578 152.967 182.197C152.541 181.817 152.329 181.304 152.332 180.659C152.329 180.131 152.47 179.669 152.754 179.274C153.041 178.879 153.434 178.571 153.934 178.349C154.434 178.128 155.002 178.017 155.639 178.017C156.286 178.017 156.852 178.128 157.335 178.349C157.821 178.571 158.198 178.879 158.468 179.274C158.738 179.669 158.877 180.126 158.886 180.646H157.117ZM166.061 180.646C166.027 180.303 165.88 180.035 165.622 179.845C165.363 179.655 165.012 179.56 164.569 179.56C164.268 179.56 164.014 179.602 163.806 179.687C163.599 179.77 163.44 179.885 163.329 180.033C163.221 180.18 163.167 180.348 163.167 180.535C163.162 180.692 163.194 180.828 163.265 180.945C163.339 181.061 163.44 181.162 163.568 181.247C163.696 181.329 163.843 181.402 164.011 181.464C164.179 181.524 164.358 181.575 164.548 181.618L165.332 181.805C165.713 181.891 166.062 182.004 166.38 182.146C166.698 182.288 166.974 182.463 167.207 182.67C167.44 182.878 167.62 183.122 167.748 183.403C167.879 183.685 167.946 184.007 167.948 184.371C167.946 184.905 167.809 185.368 167.539 185.76C167.272 186.149 166.886 186.452 166.38 186.668C165.877 186.881 165.271 186.987 164.561 186.987C163.856 186.987 163.243 186.879 162.72 186.663C162.2 186.447 161.794 186.128 161.501 185.704C161.211 185.278 161.059 184.751 161.045 184.124H162.831C162.85 184.416 162.934 184.66 163.082 184.856C163.233 185.05 163.433 185.196 163.683 185.295C163.936 185.392 164.221 185.44 164.539 185.44C164.852 185.44 165.123 185.395 165.353 185.304C165.586 185.213 165.767 185.087 165.895 184.925C166.022 184.763 166.086 184.577 166.086 184.366C166.086 184.17 166.028 184.006 165.912 183.872C165.798 183.739 165.63 183.625 165.409 183.531C165.19 183.437 164.922 183.352 164.603 183.276L163.653 183.037C162.917 182.858 162.336 182.578 161.91 182.197C161.484 181.817 161.272 181.304 161.275 180.659C161.272 180.131 161.413 179.669 161.697 179.274C161.984 178.879 162.377 178.571 162.877 178.349C163.377 178.128 163.946 178.017 164.582 178.017C165.23 178.017 165.795 178.128 166.278 178.349C166.764 178.571 167.142 178.879 167.412 179.274C167.681 179.669 167.821 180.126 167.829 180.646H166.061ZM172.115 178.136V186.864H170.27V178.136H172.115ZM180.5 180.957C180.44 180.75 180.356 180.567 180.248 180.408C180.14 180.246 180.008 180.109 179.852 179.999C179.699 179.885 179.523 179.798 179.324 179.739C179.128 179.679 178.91 179.649 178.672 179.649C178.226 179.649 177.834 179.76 177.496 179.981C177.16 180.203 176.899 180.526 176.711 180.949C176.524 181.369 176.43 181.883 176.43 182.491C176.43 183.099 176.523 183.616 176.707 184.043C176.892 184.469 177.153 184.794 177.491 185.018C177.829 185.24 178.229 185.351 178.689 185.351C179.106 185.351 179.463 185.277 179.758 185.129C180.057 184.979 180.284 184.767 180.44 184.494C180.599 184.222 180.679 183.899 180.679 183.527L181.054 183.582H178.804V182.193H182.456V183.293C182.456 184.06 182.294 184.719 181.97 185.27C181.646 185.818 181.2 186.241 180.632 186.54C180.064 186.835 179.413 186.983 178.68 186.983C177.862 186.983 177.143 186.803 176.524 186.442C175.905 186.078 175.422 185.562 175.075 184.895C174.731 184.224 174.559 183.429 174.559 182.508C174.559 181.801 174.662 181.17 174.866 180.616C175.074 180.06 175.363 179.588 175.736 179.202C176.108 178.815 176.541 178.521 177.035 178.32C177.53 178.118 178.065 178.017 178.642 178.017C179.136 178.017 179.596 178.089 180.023 178.234C180.449 178.376 180.827 178.578 181.156 178.839C181.488 179.101 181.76 179.412 181.97 179.773C182.18 180.131 182.315 180.526 182.375 180.957H180.5ZM192.222 178.136V186.864H190.628L186.831 181.371H186.767V186.864H184.922V178.136H186.541L190.308 183.625H190.385V178.136H192.222ZM194.826 186.864V178.136H200.707V179.658H196.671V181.737H200.404V183.258H196.671V185.342H200.724V186.864H194.826ZM206.347 186.864H203.254V178.136H206.373C207.251 178.136 208.007 178.311 208.64 178.66C209.274 179.007 209.761 179.506 210.102 180.156C210.445 180.807 210.617 181.585 210.617 182.491C210.617 183.401 210.445 184.182 210.102 184.835C209.761 185.489 209.271 185.99 208.632 186.339C207.995 186.689 207.234 186.864 206.347 186.864ZM205.099 185.283H206.271C206.816 185.283 207.275 185.186 207.647 184.993C208.022 184.797 208.303 184.494 208.491 184.085C208.681 183.673 208.776 183.142 208.776 182.491C208.776 181.847 208.681 181.32 208.491 180.91C208.303 180.501 208.024 180.2 207.651 180.007C207.279 179.814 206.82 179.717 206.275 179.717H205.099V185.283ZM218.767 178.136V186.864H216.921V178.136H218.767ZM228.664 178.136V186.864H227.071L223.274 181.371H223.21V186.864H221.365V178.136H222.984L226.751 183.625H226.828V178.136H228.664ZM239.861 180.646C239.827 180.303 239.68 180.035 239.422 179.845C239.163 179.655 238.812 179.56 238.369 179.56C238.068 179.56 237.814 179.602 237.606 179.687C237.399 179.77 237.24 179.885 237.129 180.033C237.021 180.18 236.967 180.348 236.967 180.535C236.962 180.692 236.994 180.828 237.065 180.945C237.139 181.061 237.24 181.162 237.368 181.247C237.496 181.329 237.643 181.402 237.811 181.464C237.979 181.524 238.158 181.575 238.348 181.618L239.132 181.805C239.513 181.891 239.862 182.004 240.18 182.146C240.498 182.288 240.774 182.463 241.007 182.67C241.24 182.878 241.42 183.122 241.548 183.403C241.679 183.685 241.746 184.007 241.748 184.371C241.746 184.905 241.609 185.368 241.339 185.76C241.072 186.149 240.686 186.452 240.18 186.668C239.677 186.881 239.071 186.987 238.361 186.987C237.656 186.987 237.043 186.879 236.52 186.663C236 186.447 235.594 186.128 235.301 185.704C235.011 185.278 234.859 184.751 234.845 184.124H236.631C236.65 184.416 236.734 184.66 236.882 184.856C237.033 185.05 237.233 185.196 237.483 185.295C237.736 185.392 238.021 185.44 238.339 185.44C238.652 185.44 238.923 185.395 239.153 185.304C239.386 185.213 239.567 185.087 239.695 184.925C239.822 184.763 239.886 184.577 239.886 184.366C239.886 184.17 239.828 184.006 239.712 183.872C239.598 183.739 239.43 183.625 239.209 183.531C238.99 183.437 238.722 183.352 238.403 183.276L237.453 183.037C236.717 182.858 236.136 182.578 235.71 182.197C235.284 181.817 235.072 181.304 235.075 180.659C235.072 180.131 235.213 179.669 235.497 179.274C235.784 178.879 236.177 178.571 236.677 178.349C237.177 178.128 237.746 178.017 238.382 178.017C239.03 178.017 239.595 178.128 240.078 178.349C240.564 178.571 240.942 178.879 241.212 179.274C241.481 179.669 241.621 180.126 241.629 180.646H239.861ZM243.558 178.136H245.625L247.615 181.895H247.7L249.69 178.136H251.757L248.574 183.778V186.864H246.741V183.778L243.558 178.136ZM253.845 186.864V178.136H255.69V185.342H259.432V186.864H253.845ZM261.734 186.864V178.136H263.579V185.342H267.32V186.864H261.734ZM271.349 186.864H269.372L272.385 178.136H274.762L277.771 186.864H275.794L273.608 180.131H273.539L271.349 186.864ZM271.225 183.433H275.896V184.874H271.225V183.433ZM279.901 186.864V178.136H283.396C284.038 178.136 284.573 178.231 285.002 178.422C285.431 178.612 285.754 178.876 285.97 179.214C286.185 179.55 286.293 179.936 286.293 180.374C286.293 180.714 286.225 181.014 286.089 181.273C285.952 181.528 285.765 181.739 285.526 181.903C285.291 182.065 285.021 182.18 284.717 182.249V182.334C285.049 182.348 285.36 182.442 285.65 182.615C285.943 182.788 286.18 183.031 286.362 183.344C286.543 183.653 286.634 184.023 286.634 184.452C286.634 184.915 286.519 185.328 286.289 185.692C286.062 186.053 285.725 186.338 285.279 186.548C284.833 186.758 284.283 186.864 283.63 186.864H279.901ZM281.747 185.355H283.251C283.765 185.355 284.14 185.257 284.376 185.061C284.612 184.862 284.729 184.598 284.729 184.268C284.729 184.027 284.671 183.814 284.555 183.629C284.438 183.445 284.272 183.3 284.056 183.195C283.843 183.089 283.589 183.037 283.293 183.037H281.747V185.355ZM281.747 181.788H283.114C283.367 181.788 283.592 181.744 283.788 181.656C283.987 181.565 284.143 181.437 284.256 181.273C284.373 181.108 284.431 180.91 284.431 180.68C284.431 180.365 284.319 180.111 284.095 179.918C283.873 179.724 283.558 179.628 283.148 179.628H281.747V181.788ZM290.76 178.136V186.864H288.915V178.136H290.76Z" fill="black" fill-opacity="0.6"/>
<path d="M284.447 155.878C284.666 156.076 284.98 156.028 285.148 155.772L287.896 151.602C288.065 151.346 288.024 150.978 287.805 150.781C287.586 150.584 287.272 150.631 287.103 150.887L284.661 154.595L281.492 151.738C281.272 151.541 280.958 151.589 280.789 151.844C280.621 152.1 280.661 152.468 280.88 152.665L284.447 155.878ZM285.248 155.34C284.341 147.157 279.377 142.056 273.129 138.509C266.892 134.969 259.246 132.904 252.806 130.866C249.57 129.842 246.644 128.828 244.314 127.64C241.968 126.446 240.319 125.119 239.532 123.533C238.773 122.007 238.754 120.113 239.951 117.563C241.157 114.99 243.57 111.828 247.557 107.894L246.912 107C242.896 110.963 240.369 114.236 239.073 117.001C237.766 119.789 237.681 122.136 238.666 124.12C239.622 126.043 241.525 127.495 243.914 128.713C246.318 129.939 249.308 130.972 252.545 131.996C259.047 134.053 266.565 136.083 272.693 139.562C278.809 143.034 283.412 147.878 284.256 155.49L285.248 155.34Z" fill="#AC1919" fill-opacity="0.4"/>
<path d="M23.9027 34L25.3345 25.2727H26.1868L24.755 34H23.9027ZM19.9311 31.5795L20.0675 30.7273H26.5788L26.4425 31.5795H19.9311ZM20.8345 34L22.2663 25.2727H23.1186L21.6868 34H20.8345ZM20.4425 28.5455L20.5788 27.6932H27.0902L26.9538 28.5455H20.4425ZM31.2685 25.2727V34H30.2116V26.3807H30.1605L28.0298 27.7955V26.7216L30.2116 25.2727H31.2685ZM37.3068 25.2727H38.5682L41.5341 32.517H41.6364L44.6023 25.2727H45.8636V34H44.875V27.3693H44.7898L42.0625 34H41.108L38.3807 27.3693H38.2955V34H37.3068V25.2727ZM50.5053 34.1364C49.9144 34.1364 49.396 33.9957 48.9499 33.7145C48.5067 33.4332 48.1602 33.0398 47.9102 32.5341C47.663 32.0284 47.5394 31.4375 47.5394 30.7614C47.5394 30.0795 47.663 29.4844 47.9102 28.9759C48.1602 28.4673 48.5067 28.0724 48.9499 27.7912C49.396 27.5099 49.9144 27.3693 50.5053 27.3693C51.0962 27.3693 51.6133 27.5099 52.0565 27.7912C52.5025 28.0724 52.8491 28.4673 53.0962 28.9759C53.3462 29.4844 53.4712 30.0795 53.4712 30.7614C53.4712 31.4375 53.3462 32.0284 53.0962 32.5341C52.8491 33.0398 52.5025 33.4332 52.0565 33.7145C51.6133 33.9957 51.0962 34.1364 50.5053 34.1364ZM50.5053 33.233C50.9542 33.233 51.3235 33.1179 51.6133 32.8878C51.9031 32.6577 52.1175 32.3551 52.2567 31.9801C52.396 31.6051 52.4656 31.1989 52.4656 30.7614C52.4656 30.3239 52.396 29.9162 52.2567 29.5384C52.1175 29.1605 51.9031 28.8551 51.6133 28.6222C51.3235 28.3892 50.9542 28.2727 50.5053 28.2727C50.0565 28.2727 49.6871 28.3892 49.3974 28.6222C49.1076 28.8551 48.8931 29.1605 48.7539 29.5384C48.6147 29.9162 48.5451 30.3239 48.5451 30.7614C48.5451 31.1989 48.6147 31.6051 48.7539 31.9801C48.8931 32.3551 49.1076 32.6577 49.3974 32.8878C49.6871 33.1179 50.0565 33.233 50.5053 33.233ZM59.6428 28.9205L58.7393 29.1761C58.6825 29.0256 58.5987 28.8793 58.4879 28.7372C58.38 28.5923 58.2322 28.473 58.0447 28.3793C57.8572 28.2855 57.6172 28.2386 57.3246 28.2386C56.924 28.2386 56.5902 28.331 56.3232 28.5156C56.0589 28.6974 55.9268 28.929 55.9268 29.2102C55.9268 29.4602 56.0178 29.6577 56.1996 29.8026C56.3814 29.9474 56.6655 30.0682 57.0518 30.1648L58.0234 30.4034C58.6087 30.5455 59.0447 30.7628 59.3317 31.0554C59.6186 31.3452 59.7621 31.7187 59.7621 32.1761C59.7621 32.5511 59.6541 32.8864 59.4382 33.1818C59.2251 33.4773 58.9268 33.7102 58.5433 33.8807C58.1598 34.0511 57.7138 34.1364 57.2053 34.1364C56.5376 34.1364 55.9851 33.9915 55.5476 33.7017C55.1101 33.4119 54.8331 32.9886 54.7166 32.4318L55.6712 32.1932C55.7621 32.5455 55.9339 32.8097 56.1868 32.9858C56.4425 33.1619 56.7763 33.25 57.1882 33.25C57.657 33.25 58.0291 33.1506 58.3047 32.9517C58.5831 32.75 58.7223 32.5085 58.7223 32.2273C58.7223 32 58.6428 31.8097 58.4837 31.6562C58.3246 31.5 58.0803 31.3835 57.7507 31.3068L56.6598 31.0511C56.0604 30.9091 55.62 30.6889 55.3388 30.3906C55.0604 30.0895 54.9212 29.7131 54.9212 29.2614C54.9212 28.892 55.0249 28.5653 55.2322 28.2812C55.4425 27.9972 55.728 27.7741 56.0888 27.6122C56.4524 27.4503 56.8643 27.3693 57.3246 27.3693C57.9723 27.3693 58.4808 27.5114 58.8501 27.7955C59.2223 28.0795 59.4865 28.4545 59.6428 28.9205ZM64.1225 27.4545V28.3068H60.7305V27.4545H64.1225ZM61.7191 25.8864H62.7248V32.125C62.7248 32.4091 62.766 32.6222 62.8484 32.7642C62.9336 32.9034 63.0415 32.9972 63.1722 33.0455C63.3058 33.0909 63.4464 33.1136 63.5941 33.1136C63.7049 33.1136 63.7958 33.108 63.8668 33.0966C63.9379 33.0824 63.9947 33.071 64.0373 33.0625L64.2418 33.9659C64.1737 33.9915 64.0785 34.017 63.9563 34.0426C63.8342 34.071 63.6793 34.0852 63.4918 34.0852C63.2077 34.0852 62.9293 34.0241 62.6566 33.902C62.3867 33.7798 62.1623 33.5938 61.9833 33.3438C61.8072 33.0938 61.7191 32.7784 61.7191 32.3977V25.8864ZM69.1509 29.7898V30.7273H65.3327V29.7898H69.1509ZM20.3381 49V40.2727H23.2869C23.9688 40.2727 24.5284 40.3892 24.9659 40.6222C25.4034 40.8523 25.7273 41.169 25.9375 41.5724C26.1477 41.9759 26.2528 42.4347 26.2528 42.9489C26.2528 43.4631 26.1477 43.919 25.9375 44.3168C25.7273 44.7145 25.4048 45.027 24.9702 45.2543C24.5355 45.4787 23.9801 45.5909 23.304 45.5909H20.9176V44.6364H23.2699C23.7358 44.6364 24.1108 44.5682 24.3949 44.4318C24.6818 44.2955 24.8892 44.1023 25.017 43.8523C25.1477 43.5994 25.2131 43.2983 25.2131 42.9489C25.2131 42.5994 25.1477 42.294 25.017 42.0327C24.8864 41.7713 24.6776 41.5696 24.3906 41.4276C24.1037 41.2827 23.7244 41.2102 23.2528 41.2102H21.3949V49H20.3381ZM24.446 45.0795L26.5938 49H25.3665L23.2528 45.0795H24.446ZM29.8036 49.1534C29.3888 49.1534 29.0124 49.0753 28.6744 48.919C28.3363 48.7599 28.0678 48.5312 27.869 48.233C27.6701 47.9318 27.5707 47.5682 27.5707 47.142C27.5707 46.767 27.6445 46.4631 27.7923 46.2301C27.94 45.9943 28.1374 45.8097 28.3846 45.6761C28.6317 45.5426 28.9045 45.4432 29.2028 45.3778C29.5039 45.3097 29.8065 45.2557 30.1104 45.2159C30.5082 45.1648 30.8306 45.1264 31.0778 45.1009C31.3278 45.0724 31.5096 45.0256 31.6232 44.9602C31.7397 44.8949 31.7979 44.7812 31.7979 44.6193V44.5852C31.7979 44.1648 31.6829 43.8381 31.4528 43.6051C31.2255 43.3722 30.8803 43.2557 30.4173 43.2557C29.9371 43.2557 29.5607 43.3608 29.288 43.571C29.0153 43.7812 28.8235 44.0057 28.7127 44.2443L27.7582 43.9034C27.9286 43.5057 28.1559 43.196 28.44 42.9744C28.7269 42.75 29.0394 42.5937 29.3775 42.5057C29.7184 42.4148 30.0536 42.3693 30.3832 42.3693C30.5934 42.3693 30.8349 42.3949 31.1076 42.446C31.3832 42.4943 31.6488 42.5952 31.9045 42.7486C32.163 42.902 32.3775 43.1335 32.5479 43.4432C32.7184 43.7528 32.8036 44.1676 32.8036 44.6875V49H31.7979V48.1136H31.7468C31.6786 48.2557 31.565 48.4077 31.4059 48.5696C31.2468 48.7315 31.0352 48.8693 30.771 48.983C30.5067 49.0966 30.1843 49.1534 29.8036 49.1534ZM29.957 48.25C30.3548 48.25 30.69 48.1719 30.9627 48.0156C31.2383 47.8594 31.4457 47.6577 31.5849 47.4105C31.7269 47.1634 31.7979 46.9034 31.7979 46.6307V45.7102C31.7553 45.7614 31.6616 45.8082 31.5167 45.8509C31.3746 45.8906 31.2099 45.9261 31.0224 45.9574C30.8377 45.9858 30.6573 46.0114 30.4812 46.0341C30.3079 46.054 30.1673 46.071 30.0593 46.0852C29.7979 46.1193 29.5536 46.1747 29.3263 46.2514C29.1019 46.3253 28.9201 46.4375 28.7809 46.5881C28.6445 46.7358 28.5763 46.9375 28.5763 47.1932C28.5763 47.5426 28.7056 47.8068 28.9641 47.9858C29.2255 48.1619 29.5565 48.25 29.957 48.25ZM37.4858 42.4545V43.3068H34.0938V42.4545H37.4858ZM35.0824 40.8864H36.0881V47.125C36.0881 47.4091 36.1293 47.6222 36.2116 47.7642C36.2969 47.9034 36.4048 47.9972 36.5355 48.0455C36.669 48.0909 36.8097 48.1136 36.9574 48.1136C37.0682 48.1136 37.1591 48.108 37.2301 48.0966C37.3011 48.0824 37.358 48.071 37.4006 48.0625L37.6051 48.9659C37.5369 48.9915 37.4418 49.017 37.3196 49.0426C37.1974 49.071 37.0426 49.0852 36.8551 49.0852C36.571 49.0852 36.2926 49.0241 36.0199 48.902C35.75 48.7798 35.5256 48.5938 35.3466 48.3438C35.1705 48.0938 35.0824 47.7784 35.0824 47.3977V40.8864ZM41.6726 49.1364C41.0419 49.1364 40.4979 48.9972 40.0405 48.7188C39.5859 48.4375 39.2351 48.0455 38.9879 47.5426C38.7436 47.0369 38.6214 46.4489 38.6214 45.7784C38.6214 45.108 38.7436 44.517 38.9879 44.0057C39.2351 43.4915 39.5788 43.0909 40.0192 42.804C40.4624 42.5142 40.9794 42.3693 41.5703 42.3693C41.9112 42.3693 42.2479 42.4261 42.5803 42.5398C42.9126 42.6534 43.2152 42.8381 43.4879 43.0938C43.7607 43.3466 43.978 43.6818 44.1399 44.0994C44.3018 44.517 44.3828 45.0312 44.3828 45.642V46.0682H39.3374V45.1989H43.3601C43.3601 44.8295 43.2862 44.5 43.1385 44.2102C42.9936 43.9205 42.7862 43.6918 42.5163 43.5241C42.2493 43.3565 41.9339 43.2727 41.5703 43.2727C41.1697 43.2727 40.8232 43.3722 40.5305 43.571C40.2408 43.767 40.0178 44.0227 39.8615 44.3381C39.7053 44.6534 39.6271 44.9915 39.6271 45.3523V45.9318C39.6271 46.4261 39.7124 46.8452 39.8828 47.1889C40.0561 47.5298 40.2962 47.7898 40.603 47.9688C40.9098 48.1449 41.2663 48.233 41.6726 48.233C41.9368 48.233 42.1754 48.196 42.3885 48.1222C42.6044 48.0455 42.7905 47.9318 42.9467 47.7812C43.103 47.6278 43.2237 47.4375 43.3089 47.2102L44.2805 47.483C44.1783 47.8125 44.0064 48.1023 43.7649 48.3523C43.5234 48.5994 43.2251 48.7926 42.87 48.9318C42.5149 49.0682 42.1158 49.1364 41.6726 49.1364ZM48.3842 49.1364C47.8388 49.1364 47.3572 48.9986 46.9396 48.723C46.522 48.4446 46.1953 48.0526 45.9595 47.5469C45.7237 47.0384 45.6058 46.4375 45.6058 45.7443C45.6058 45.0568 45.7237 44.4602 45.9595 43.9545C46.1953 43.4489 46.5234 43.0582 46.9439 42.7827C47.3643 42.5071 47.8501 42.3693 48.4013 42.3693C48.8274 42.3693 49.1641 42.4403 49.4112 42.5824C49.6612 42.7216 49.8516 42.8807 49.9822 43.0597C50.1158 43.2358 50.2195 43.3807 50.2933 43.4943H50.3786V40.2727H51.3842V49H50.4126V47.9943H50.2933C50.2195 48.1136 50.1143 48.2642 49.978 48.446C49.8416 48.625 49.647 48.7855 49.3942 48.9276C49.1413 49.0668 48.8047 49.1364 48.3842 49.1364ZM48.5206 48.233C48.924 48.233 49.2649 48.1278 49.5433 47.9176C49.8217 47.7045 50.0334 47.4105 50.1783 47.0355C50.3232 46.6577 50.3956 46.2216 50.3956 45.7273C50.3956 45.2386 50.3246 44.8111 50.1825 44.4446C50.0405 44.0753 49.8303 43.7884 49.5518 43.5838C49.2734 43.3764 48.9297 43.2727 48.5206 43.2727C48.0945 43.2727 47.7393 43.3821 47.4553 43.6009C47.174 43.8168 46.9624 44.1108 46.8203 44.483C46.6811 44.8523 46.6115 45.267 46.6115 45.7273C46.6115 46.1932 46.6825 46.6165 46.8246 46.9972C46.9695 47.375 47.1825 47.6761 47.4638 47.9006C47.7479 48.1222 48.1001 48.233 48.5206 48.233ZM59.3999 49.1364C58.8089 49.1364 58.2905 48.9957 57.8445 48.7145C57.4013 48.4332 57.0547 48.0398 56.8047 47.5341C56.5575 47.0284 56.4339 46.4375 56.4339 45.7614C56.4339 45.0795 56.5575 44.4844 56.8047 43.9759C57.0547 43.4673 57.4013 43.0724 57.8445 42.7912C58.2905 42.5099 58.8089 42.3693 59.3999 42.3693C59.9908 42.3693 60.5078 42.5099 60.951 42.7912C61.397 43.0724 61.7436 43.4673 61.9908 43.9759C62.2408 44.4844 62.3658 45.0795 62.3658 45.7614C62.3658 46.4375 62.2408 47.0284 61.9908 47.5341C61.7436 48.0398 61.397 48.4332 60.951 48.7145C60.5078 48.9957 59.9908 49.1364 59.3999 49.1364ZM59.3999 48.233C59.8487 48.233 60.218 48.1179 60.5078 47.8878C60.7976 47.6577 61.0121 47.3551 61.1513 46.9801C61.2905 46.6051 61.3601 46.1989 61.3601 45.7614C61.3601 45.3239 61.2905 44.9162 61.1513 44.5384C61.0121 44.1605 60.7976 43.8551 60.5078 43.6222C60.218 43.3892 59.8487 43.2727 59.3999 43.2727C58.951 43.2727 58.5817 43.3892 58.2919 43.6222C58.0021 43.8551 57.7876 44.1605 57.6484 44.5384C57.5092 44.9162 57.4396 45.3239 57.4396 45.7614C57.4396 46.1989 57.5092 46.6051 57.6484 46.9801C57.7876 47.3551 58.0021 47.6577 58.2919 47.8878C58.5817 48.1179 58.951 48.233 59.3999 48.233ZM64.9066 45.0625V49H63.9009V42.4545H64.8725V43.4773H64.9577C65.1112 43.1449 65.3441 42.8778 65.6566 42.6761C65.9691 42.4716 66.3725 42.3693 66.8668 42.3693C67.31 42.3693 67.6978 42.4602 68.0302 42.642C68.3626 42.821 68.6211 43.0938 68.8058 43.4602C68.9904 43.8239 69.0827 44.2841 69.0827 44.8409V49H68.0771V44.9091C68.0771 44.3949 67.9435 43.9943 67.6765 43.7074C67.4094 43.4176 67.043 43.2727 66.5771 43.2727C66.256 43.2727 65.9691 43.3423 65.7163 43.4815C65.4663 43.6207 65.2688 43.8239 65.1239 44.0909C64.979 44.358 64.9066 44.6818 64.9066 45.0625ZM14.5969 58C14.5032 57.7131 14.3796 57.456 14.2262 57.2287C14.0756 56.9986 13.8952 56.8026 13.685 56.6406C13.4776 56.4787 13.2418 56.3551 12.9776 56.2699C12.7134 56.1847 12.4237 56.142 12.1083 56.142C11.5913 56.142 11.1211 56.2756 10.6978 56.5426C10.2745 56.8097 9.93786 57.2031 9.68786 57.723C9.43786 58.2429 9.31286 58.8807 9.31286 59.6364C9.31286 60.392 9.43928 61.0298 9.69212 61.5497C9.94496 62.0696 10.2873 62.4631 10.7191 62.7301C11.1509 62.9972 11.6367 63.1307 12.1765 63.1307C12.6765 63.1307 13.1168 63.0241 13.4975 62.8111C13.881 62.5952 14.1793 62.2912 14.3924 61.8991C14.6083 61.5043 14.7163 61.0398 14.7163 60.5057L15.0401 60.5739H12.4151V59.6364H15.739V60.5739C15.739 61.2926 15.5856 61.9176 15.2788 62.4489C14.9748 62.9801 14.5543 63.392 14.0174 63.6847C13.4833 63.9744 12.8697 64.1193 12.1765 64.1193C11.4038 64.1193 10.7248 63.9375 10.1396 63.5739C9.55717 63.2102 9.10263 62.6932 8.77592 62.0227C8.45206 61.3523 8.29013 60.5568 8.29013 59.6364C8.29013 58.946 8.38246 58.3253 8.56712 57.7741C8.75462 57.2202 9.01882 56.7486 9.35973 56.3594C9.70064 55.9702 10.104 55.6719 10.57 55.4645C11.0359 55.2571 11.5487 55.1534 12.1083 55.1534C12.5685 55.1534 12.9975 55.223 13.3952 55.3622C13.7958 55.4986 14.1523 55.6932 14.4648 55.946C14.7802 56.196 15.043 56.4957 15.2532 56.8452C15.4634 57.1918 15.6083 57.5767 15.6879 58H14.5969ZM20.0717 64.1364C19.4808 64.1364 18.9624 63.9957 18.5163 63.7145C18.0732 63.4332 17.7266 63.0398 17.4766 62.5341C17.2294 62.0284 17.1058 61.4375 17.1058 60.7614C17.1058 60.0795 17.2294 59.4844 17.4766 58.9759C17.7266 58.4673 18.0732 58.0724 18.5163 57.7912C18.9624 57.5099 19.4808 57.3693 20.0717 57.3693C20.6626 57.3693 21.1797 57.5099 21.6229 57.7912C22.0689 58.0724 22.4155 58.4673 22.6626 58.9759C22.9126 59.4844 23.0376 60.0795 23.0376 60.7614C23.0376 61.4375 22.9126 62.0284 22.6626 62.5341C22.4155 63.0398 22.0689 63.4332 21.6229 63.7145C21.1797 63.9957 20.6626 64.1364 20.0717 64.1364ZM20.0717 63.233C20.5206 63.233 20.8899 63.1179 21.1797 62.8878C21.4695 62.6577 21.6839 62.3551 21.8232 61.9801C21.9624 61.6051 22.032 61.1989 22.032 60.7614C22.032 60.3239 21.9624 59.9162 21.8232 59.5384C21.6839 59.1605 21.4695 58.8551 21.1797 58.6222C20.8899 58.3892 20.5206 58.2727 20.0717 58.2727C19.6229 58.2727 19.2536 58.3892 18.9638 58.6222C18.674 58.8551 18.4595 59.1605 18.3203 59.5384C18.1811 59.9162 18.1115 60.3239 18.1115 60.7614C18.1115 61.1989 18.1811 61.6051 18.3203 61.9801C18.4595 62.3551 18.674 62.6577 18.9638 62.8878C19.2536 63.1179 19.6229 63.233 20.0717 63.233ZM27.2319 64.1364C26.641 64.1364 26.1225 63.9957 25.6765 63.7145C25.2333 63.4332 24.8867 63.0398 24.6367 62.5341C24.3896 62.0284 24.266 61.4375 24.266 60.7614C24.266 60.0795 24.3896 59.4844 24.6367 58.9759C24.8867 58.4673 25.2333 58.0724 25.6765 57.7912C26.1225 57.5099 26.641 57.3693 27.2319 57.3693C27.8228 57.3693 28.3398 57.5099 28.783 57.7912C29.229 58.0724 29.5756 58.4673 29.8228 58.9759C30.0728 59.4844 30.1978 60.0795 30.1978 60.7614C30.1978 61.4375 30.0728 62.0284 29.8228 62.5341C29.5756 63.0398 29.229 63.4332 28.783 63.7145C28.3398 63.9957 27.8228 64.1364 27.2319 64.1364ZM27.2319 63.233C27.6808 63.233 28.0501 63.1179 28.3398 62.8878C28.6296 62.6577 28.8441 62.3551 28.9833 61.9801C29.1225 61.6051 29.1921 61.1989 29.1921 60.7614C29.1921 60.3239 29.1225 59.9162 28.9833 59.5384C28.8441 59.1605 28.6296 58.8551 28.3398 58.6222C28.0501 58.3892 27.6808 58.2727 27.2319 58.2727C26.783 58.2727 26.4137 58.3892 26.1239 58.6222C25.8342 58.8551 25.6197 59.1605 25.4805 59.5384C25.3413 59.9162 25.2717 60.3239 25.2717 60.7614C25.2717 61.1989 25.3413 61.6051 25.4805 61.9801C25.6197 62.3551 25.8342 62.6577 26.1239 62.8878C26.4137 63.1179 26.783 63.233 27.2319 63.233ZM34.2045 64.1364C33.6591 64.1364 33.1776 63.9986 32.7599 63.723C32.3423 63.4446 32.0156 63.0526 31.7798 62.5469C31.544 62.0384 31.4261 61.4375 31.4261 60.7443C31.4261 60.0568 31.544 59.4602 31.7798 58.9545C32.0156 58.4489 32.3438 58.0582 32.7642 57.7827C33.1847 57.5071 33.6705 57.3693 34.2216 57.3693C34.6477 57.3693 34.9844 57.4403 35.2315 57.5824C35.4815 57.7216 35.6719 57.8807 35.8026 58.0597C35.9361 58.2358 36.0398 58.3807 36.1136 58.4943H36.1989V55.2727H37.2045V64H36.233V62.9943H36.1136C36.0398 63.1136 35.9347 63.2642 35.7983 63.446C35.6619 63.625 35.4673 63.7855 35.2145 63.9276C34.9616 64.0668 34.625 64.1364 34.2045 64.1364ZM34.3409 63.233C34.7443 63.233 35.0852 63.1278 35.3636 62.9176C35.642 62.7045 35.8537 62.4105 35.9986 62.0355C36.1435 61.6577 36.2159 61.2216 36.2159 60.7273C36.2159 60.2386 36.1449 59.8111 36.0028 59.4446C35.8608 59.0753 35.6506 58.7884 35.3722 58.5838C35.0938 58.3764 34.75 58.2727 34.3409 58.2727C33.9148 58.2727 33.5597 58.3821 33.2756 58.6009C32.9943 58.8168 32.7827 59.1108 32.6406 59.483C32.5014 59.8523 32.4318 60.267 32.4318 60.7273C32.4318 61.1932 32.5028 61.6165 32.6449 61.9972C32.7898 62.375 33.0028 62.6761 33.2841 62.9006C33.5682 63.1222 33.9205 63.233 34.3409 63.233ZM39.1861 64V57.4545H40.1577V58.4432H40.2259C40.3452 58.1193 40.5611 57.8565 40.8736 57.6548C41.1861 57.4531 41.5384 57.3523 41.9304 57.3523C42.0043 57.3523 42.0966 57.3537 42.2074 57.3565C42.3182 57.3594 42.402 57.3636 42.4588 57.3693V58.392C42.4247 58.3835 42.3466 58.3707 42.2244 58.3537C42.1051 58.3338 41.9787 58.3239 41.8452 58.3239C41.527 58.3239 41.2429 58.3906 40.9929 58.5241C40.7457 58.6548 40.5497 58.8366 40.4048 59.0696C40.2628 59.2997 40.1918 59.5625 40.1918 59.858V64H39.1861ZM46.196 64.1364C45.5653 64.1364 45.0213 63.9972 44.5639 63.7188C44.1094 63.4375 43.7585 63.0455 43.5114 62.5426C43.267 62.0369 43.1449 61.4489 43.1449 60.7784C43.1449 60.108 43.267 59.517 43.5114 59.0057C43.7585 58.4915 44.1023 58.0909 44.5426 57.804C44.9858 57.5142 45.5028 57.3693 46.0938 57.3693C46.4347 57.3693 46.7713 57.4261 47.1037 57.5398C47.4361 57.6534 47.7386 57.8381 48.0114 58.0938C48.2841 58.3466 48.5014 58.6818 48.6634 59.0994C48.8253 59.517 48.9062 60.0312 48.9062 60.642V61.0682H43.8608V60.1989H47.8835C47.8835 59.8295 47.8097 59.5 47.6619 59.2102C47.517 58.9205 47.3097 58.6918 47.0398 58.5241C46.7727 58.3565 46.4574 58.2727 46.0938 58.2727C45.6932 58.2727 45.3466 58.3722 45.054 58.571C44.7642 58.767 44.5412 59.0227 44.3849 59.3381C44.2287 59.6534 44.1506 59.9915 44.1506 60.3523V60.9318C44.1506 61.4261 44.2358 61.8452 44.4062 62.1889C44.5795 62.5298 44.8196 62.7898 45.1264 62.9688C45.4332 63.1449 45.7898 63.233 46.196 63.233C46.4602 63.233 46.6989 63.196 46.9119 63.1222C47.1278 63.0455 47.3139 62.9318 47.4702 62.7812C47.6264 62.6278 47.7472 62.4375 47.8324 62.2102L48.804 62.483C48.7017 62.8125 48.5298 63.1023 48.2884 63.3523C48.0469 63.5994 47.7486 63.7926 47.3935 63.9318C47.0384 64.0682 46.6392 64.1364 46.196 64.1364ZM52.3622 64.1534C51.9474 64.1534 51.571 64.0753 51.233 63.919C50.8949 63.7599 50.6264 63.5312 50.4276 63.233C50.2287 62.9318 50.1293 62.5682 50.1293 62.142C50.1293 61.767 50.2031 61.4631 50.3509 61.2301C50.4986 60.9943 50.696 60.8097 50.9432 60.6761C51.1903 60.5426 51.4631 60.4432 51.7614 60.3778C52.0625 60.3097 52.3651 60.2557 52.669 60.2159C53.0668 60.1648 53.3892 60.1264 53.6364 60.1009C53.8864 60.0724 54.0682 60.0256 54.1818 59.9602C54.2983 59.8949 54.3565 59.7812 54.3565 59.6193V59.5852C54.3565 59.1648 54.2415 58.8381 54.0114 58.6051C53.7841 58.3722 53.4389 58.2557 52.9759 58.2557C52.4957 58.2557 52.1193 58.3608 51.8466 58.571C51.5739 58.7812 51.3821 59.0057 51.2713 59.2443L50.3168 58.9034C50.4872 58.5057 50.7145 58.196 50.9986 57.9744C51.2855 57.75 51.598 57.5937 51.9361 57.5057C52.277 57.4148 52.6122 57.3693 52.9418 57.3693C53.152 57.3693 53.3935 57.3949 53.6662 57.446C53.9418 57.4943 54.2074 57.5952 54.4631 57.7486C54.7216 57.902 54.9361 58.1335 55.1065 58.4432C55.277 58.7528 55.3622 59.1676 55.3622 59.6875V64H54.3565V63.1136H54.3054C54.2372 63.2557 54.1236 63.4077 53.9645 63.5696C53.8054 63.7315 53.5938 63.8693 53.3295 63.983C53.0653 64.0966 52.7429 64.1534 52.3622 64.1534ZM52.5156 63.25C52.9134 63.25 53.2486 63.1719 53.5213 63.0156C53.7969 62.8594 54.0043 62.6577 54.1435 62.4105C54.2855 62.1634 54.3565 61.9034 54.3565 61.6307V60.7102C54.3139 60.7614 54.2202 60.8082 54.0753 60.8509C53.9332 60.8906 53.7685 60.9261 53.581 60.9574C53.3963 60.9858 53.2159 61.0114 53.0398 61.0341C52.8665 61.054 52.7259 61.071 52.6179 61.0852C52.3565 61.1193 52.1122 61.1747 51.8849 61.2514C51.6605 61.3253 51.4787 61.4375 51.3395 61.5881C51.2031 61.7358 51.1349 61.9375 51.1349 62.1932C51.1349 62.5426 51.2642 62.8068 51.5227 62.9858C51.7841 63.1619 52.1151 63.25 52.5156 63.25ZM59.6694 64.1364C59.1239 64.1364 58.6424 63.9986 58.2248 63.723C57.8072 63.4446 57.4805 63.0526 57.2447 62.5469C57.0089 62.0384 56.891 61.4375 56.891 60.7443C56.891 60.0568 57.0089 59.4602 57.2447 58.9545C57.4805 58.4489 57.8086 58.0582 58.229 57.7827C58.6495 57.5071 59.1353 57.3693 59.6864 57.3693C60.1126 57.3693 60.4492 57.4403 60.6964 57.5824C60.9464 57.7216 61.1367 57.8807 61.2674 58.0597C61.4009 58.2358 61.5046 58.3807 61.5785 58.4943H61.6637V55.2727H62.6694V64H61.6978V62.9943H61.5785C61.5046 63.1136 61.3995 63.2642 61.2631 63.446C61.1268 63.625 60.9322 63.7855 60.6793 63.9276C60.4265 64.0668 60.0898 64.1364 59.6694 64.1364ZM59.8058 63.233C60.2092 63.233 60.5501 63.1278 60.8285 62.9176C61.1069 62.7045 61.3185 62.4105 61.4634 62.0355C61.6083 61.6577 61.6808 61.2216 61.6808 60.7273C61.6808 60.2386 61.6097 59.8111 61.4677 59.4446C61.3256 59.0753 61.1154 58.7884 60.837 58.5838C60.5586 58.3764 60.2148 58.2727 59.8058 58.2727C59.3796 58.2727 59.0245 58.3821 58.7404 58.6009C58.4592 58.8168 58.2475 59.1108 58.1055 59.483C57.9663 59.8523 57.8967 60.267 57.8967 60.7273C57.8967 61.1932 57.9677 61.6165 58.1097 61.9972C58.2546 62.375 58.4677 62.6761 58.7489 62.9006C59.033 63.1222 59.3853 63.233 59.8058 63.233ZM69.2873 58.9205L68.3839 59.1761C68.3271 59.0256 68.2433 58.8793 68.1325 58.7372C68.0245 58.5923 67.8768 58.473 67.6893 58.3793C67.5018 58.2855 67.2617 58.2386 66.9691 58.2386C66.5685 58.2386 66.2347 58.331 65.9677 58.5156C65.7035 58.6974 65.5714 58.929 65.5714 59.2102C65.5714 59.4602 65.6623 59.6577 65.8441 59.8026C66.0259 59.9474 66.31 60.0682 66.6964 60.1648L67.668 60.4034C68.2532 60.5455 68.6893 60.7628 68.9762 61.0554C69.2631 61.3452 69.4066 61.7187 69.4066 62.1761C69.4066 62.5511 69.2987 62.8864 69.0827 63.1818C68.8697 63.4773 68.5714 63.7102 68.1879 63.8807C67.8043 64.0511 67.3583 64.1364 66.8498 64.1364C66.1822 64.1364 65.6296 63.9915 65.1921 63.7017C64.7546 63.4119 64.4776 62.9886 64.3612 62.4318L65.3157 62.1932C65.4066 62.5455 65.5785 62.8097 65.8313 62.9858C66.087 63.1619 66.4208 63.25 66.8327 63.25C67.3015 63.25 67.6737 63.1506 67.9492 62.9517C68.2276 62.75 68.3668 62.5085 68.3668 62.2273C68.3668 62 68.2873 61.8097 68.1282 61.6562C67.9691 61.5 67.7248 61.3835 67.3952 61.3068L66.3043 61.0511C65.7049 60.9091 65.2646 60.6889 64.9833 60.3906C64.7049 60.0895 64.5657 59.7131 64.5657 59.2614C64.5657 58.892 64.6694 58.5653 64.8768 58.2812C65.087 57.9972 65.3725 57.7741 65.7333 57.6122C66.0969 57.4503 66.5089 57.3693 66.9691 57.3693C67.6168 57.3693 68.1254 57.5114 68.4947 57.7955C68.8668 58.0795 69.131 58.4545 69.2873 58.9205Z" fill="black" fill-opacity="0.6"/>
<path d="M26.7816 163.864L28.2134 155.137H29.0657L27.6339 163.864H26.7816ZM22.81 161.444L22.9464 160.591H29.4577L29.3214 161.444H22.81ZM23.7134 163.864L25.1452 155.137H25.9975L24.5657 163.864H23.7134ZM23.3214 158.409L23.4577 157.557H29.9691L29.8327 158.409H23.3214ZM33.8065 163.983C33.3065 163.983 32.8562 163.884 32.4556 163.685C32.055 163.486 31.734 163.213 31.4925 162.867C31.2511 162.52 31.119 162.125 31.0962 161.682H32.119C32.1587 162.077 32.3377 162.404 32.6559 162.662C32.9769 162.918 33.3604 163.046 33.8065 163.046C34.1644 163.046 34.4826 162.962 34.761 162.794C35.0423 162.627 35.2624 162.397 35.4215 162.104C35.5835 161.809 35.6644 161.475 35.6644 161.103C35.6644 160.722 35.5806 160.382 35.413 160.084C35.2482 159.783 35.021 159.546 34.7312 159.373C34.4414 159.199 34.1104 159.111 33.7383 159.108C33.4712 159.105 33.1971 159.147 32.9158 159.232C32.6346 159.314 32.4031 159.421 32.2212 159.552L31.2326 159.432L31.761 155.137H36.2951V156.074H32.6474L32.3406 158.648H32.3917C32.5707 158.506 32.7951 158.388 33.065 158.294C33.3349 158.201 33.6161 158.154 33.9087 158.154C34.4428 158.154 34.9187 158.282 35.3363 158.537C35.7567 158.79 36.0863 159.137 36.3249 159.577C36.5664 160.017 36.6871 160.52 36.6871 161.086C36.6871 161.642 36.5621 162.14 36.3121 162.577C36.065 163.012 35.7241 163.355 35.2894 163.608C34.8548 163.858 34.3604 163.983 33.8065 163.983ZM41.2266 163.983C40.5845 163.983 40.0376 163.809 39.5859 163.459C39.1342 163.107 38.7891 162.597 38.5504 161.929C38.3118 161.259 38.1925 160.449 38.1925 159.5C38.1925 158.557 38.3118 157.752 38.5504 157.084C38.7919 156.414 39.1385 155.902 39.5902 155.55C40.0447 155.195 40.5902 155.017 41.2266 155.017C41.8629 155.017 42.407 155.195 42.8587 155.55C43.3132 155.902 43.6598 156.414 43.8984 157.084C44.1399 157.752 44.2607 158.557 44.2607 159.5C44.2607 160.449 44.1413 161.259 43.9027 161.929C43.6641 162.597 43.3189 163.107 42.8672 163.459C42.4155 163.809 41.8686 163.983 41.2266 163.983ZM41.2266 163.046C41.8629 163.046 42.3572 162.739 42.7095 162.125C43.0618 161.512 43.2379 160.637 43.2379 159.5C43.2379 158.745 43.157 158.101 42.995 157.57C42.8359 157.039 42.6058 156.634 42.3047 156.355C42.0064 156.077 41.647 155.938 41.2266 155.938C40.5959 155.938 40.103 156.249 39.7479 156.871C39.3928 157.49 39.2152 158.367 39.2152 159.5C39.2152 160.256 39.2947 160.898 39.4538 161.427C39.6129 161.955 39.8416 162.357 40.1399 162.632C40.4411 162.908 40.8033 163.046 41.2266 163.046ZM47.0923 162.671L47.0241 163.131C46.9759 163.455 46.902 163.802 46.8026 164.171C46.706 164.54 46.6051 164.888 46.5 165.215C46.3949 165.542 46.3082 165.802 46.2401 165.995H45.473C45.5099 165.813 45.5582 165.573 45.6179 165.275C45.6776 164.976 45.7372 164.642 45.7969 164.273C45.8594 163.907 45.9105 163.532 45.9503 163.148L46.0014 162.671H47.0923ZM51.4805 163.983C50.8384 163.983 50.2915 163.809 49.8398 163.459C49.3881 163.107 49.043 162.597 48.8043 161.929C48.5657 161.259 48.4464 160.449 48.4464 159.5C48.4464 158.557 48.5657 157.752 48.8043 157.084C49.0458 156.414 49.3924 155.902 49.8441 155.55C50.2987 155.195 50.8441 155.017 51.4805 155.017C52.1168 155.017 52.6609 155.195 53.1126 155.55C53.5671 155.902 53.9137 156.414 54.1523 157.084C54.3938 157.752 54.5146 158.557 54.5146 159.5C54.5146 160.449 54.3952 161.259 54.1566 161.929C53.918 162.597 53.5728 163.107 53.1211 163.459C52.6694 163.809 52.1225 163.983 51.4805 163.983ZM51.4805 163.046C52.1168 163.046 52.6112 162.739 52.9634 162.125C53.3157 161.512 53.4918 160.637 53.4918 159.5C53.4918 158.745 53.4109 158.101 53.2489 157.57C53.0898 157.039 52.8597 156.634 52.5586 156.355C52.2603 156.077 51.9009 155.938 51.4805 155.938C50.8498 155.938 50.3569 156.249 50.0018 156.871C49.6467 157.49 49.4691 158.367 49.4691 159.5C49.4691 160.256 49.5487 160.898 49.7077 161.427C49.8668 161.955 50.0955 162.357 50.3938 162.632C50.695 162.908 51.0572 163.046 51.4805 163.046ZM58.9805 163.983C58.3384 163.983 57.7915 163.809 57.3398 163.459C56.8881 163.107 56.543 162.597 56.3043 161.929C56.0657 161.259 55.9464 160.449 55.9464 159.5C55.9464 158.557 56.0657 157.752 56.3043 157.084C56.5458 156.414 56.8924 155.902 57.3441 155.55C57.7987 155.195 58.3441 155.017 58.9805 155.017C59.6168 155.017 60.1609 155.195 60.6126 155.55C61.0671 155.902 61.4137 156.414 61.6523 157.084C61.8938 157.752 62.0146 158.557 62.0146 159.5C62.0146 160.449 61.8952 161.259 61.6566 161.929C61.418 162.597 61.0728 163.107 60.6211 163.459C60.1694 163.809 59.6225 163.983 58.9805 163.983ZM58.9805 163.046C59.6168 163.046 60.1112 162.739 60.4634 162.125C60.8157 161.512 60.9918 160.637 60.9918 159.5C60.9918 158.745 60.9109 158.101 60.7489 157.57C60.5898 157.039 60.3597 156.634 60.0586 156.355C59.7603 156.077 59.4009 155.938 58.9805 155.938C58.3498 155.938 57.8569 156.249 57.5018 156.871C57.1467 157.49 56.9691 158.367 56.9691 159.5C56.9691 160.256 57.0487 160.898 57.2077 161.427C57.3668 161.955 57.5955 162.357 57.8938 162.632C58.195 162.908 58.5572 163.046 58.9805 163.046ZM66.4805 163.983C65.8384 163.983 65.2915 163.809 64.8398 163.459C64.3881 163.107 64.043 162.597 63.8043 161.929C63.5657 161.259 63.4464 160.449 63.4464 159.5C63.4464 158.557 63.5657 157.752 63.8043 157.084C64.0458 156.414 64.3924 155.902 64.8441 155.55C65.2987 155.195 65.8441 155.017 66.4805 155.017C67.1168 155.017 67.6609 155.195 68.1126 155.55C68.5671 155.902 68.9137 156.414 69.1523 157.084C69.3938 157.752 69.5146 158.557 69.5146 159.5C69.5146 160.449 69.3952 161.259 69.1566 161.929C68.918 162.597 68.5728 163.107 68.1211 163.459C67.6694 163.809 67.1225 163.983 66.4805 163.983ZM66.4805 163.046C67.1168 163.046 67.6112 162.739 67.9634 162.125C68.3157 161.512 68.4918 160.637 68.4918 159.5C68.4918 158.745 68.4109 158.101 68.2489 157.57C68.0898 157.039 67.8597 156.634 67.5586 156.355C67.2603 156.077 66.9009 155.938 66.4805 155.938C65.8498 155.938 65.3569 156.249 65.0018 156.871C64.6467 157.49 64.4691 158.367 64.4691 159.5C64.4691 160.256 64.5487 160.898 64.7077 161.427C64.8668 161.955 65.0955 162.357 65.3938 162.632C65.695 162.908 66.0572 163.046 66.4805 163.046Z" fill="black" fill-opacity="0.6"/>
<path d="M27.1761 101.864L28.608 93.1367H29.4602L28.0284 101.864H27.1761ZM23.2045 99.4436L23.3409 98.5913H29.8523L29.7159 99.4436H23.2045ZM24.108 101.864L25.5398 93.1367H26.392L24.9602 101.864H24.108ZM23.7159 96.4095L23.8523 95.5572H30.3636L30.2273 96.4095H23.7159ZM31.4737 101.864V101.097L34.3544 97.9436C34.6925 97.5742 34.9709 97.2532 35.1896 96.9805C35.4084 96.7049 35.5703 96.4464 35.6754 96.2049C35.7834 95.9606 35.8374 95.7049 35.8374 95.4379C35.8374 95.1311 35.7635 94.8654 35.6158 94.641C35.4709 94.4166 35.272 94.2433 35.0192 94.1211C34.7663 93.999 34.4822 93.9379 34.1669 93.9379C33.8317 93.9379 33.5391 94.0075 33.2891 94.1467C33.0419 94.283 32.8501 94.4748 32.7138 94.722C32.5803 94.9691 32.5135 95.2589 32.5135 95.5913H31.5078C31.5078 95.0799 31.6257 94.6311 31.8615 94.2447C32.0973 93.8583 32.4183 93.5572 32.8246 93.3413C33.2337 93.1254 33.6925 93.0174 34.201 93.0174C34.7124 93.0174 35.1655 93.1254 35.5604 93.3413C35.9553 93.5572 36.2649 93.8484 36.4893 94.2149C36.7138 94.5813 36.826 94.989 36.826 95.4379C36.826 95.7589 36.7678 96.0728 36.6513 96.3796C36.5376 96.6836 36.3388 97.0231 36.0547 97.3981C35.7734 97.7703 35.3828 98.2248 34.8828 98.7617L32.9226 100.858V100.927H36.9794V101.864H31.4737ZM41.4666 101.983C40.9666 101.983 40.5163 101.884 40.1158 101.685C39.7152 101.486 39.3942 101.213 39.1527 100.867C38.9112 100.52 38.7791 100.125 38.7564 99.6822H39.7791C39.8189 100.077 39.9979 100.404 40.3161 100.662C40.6371 100.918 41.0206 101.046 41.4666 101.046C41.8246 101.046 42.1428 100.962 42.4212 100.794C42.7024 100.627 42.9226 100.397 43.0817 100.104C43.2436 99.8086 43.3246 99.4748 43.3246 99.1026C43.3246 98.722 43.2408 98.3825 43.0732 98.0842C42.9084 97.783 42.6811 97.5458 42.3913 97.3725C42.1016 97.1992 41.7706 97.1112 41.3984 97.1083C41.1314 97.1055 40.8572 97.1467 40.576 97.2319C40.2947 97.3143 40.0632 97.4208 39.8814 97.5515L38.8928 97.4322L39.4212 93.1367H43.9553V94.0742H40.3075L40.0007 96.6481H40.0518C40.2308 96.5061 40.4553 96.3882 40.7251 96.2944C40.995 96.2007 41.2763 96.1538 41.5689 96.1538C42.103 96.1538 42.5788 96.2816 42.9964 96.5373C43.4169 96.7901 43.7464 97.1367 43.9851 97.5771C44.2266 98.0174 44.3473 98.5203 44.3473 99.0856C44.3473 99.6424 44.2223 100.14 43.9723 100.577C43.7251 101.012 43.3842 101.355 42.9496 101.608C42.5149 101.858 42.0206 101.983 41.4666 101.983ZM47.229 100.671L47.1609 101.131C47.1126 101.455 47.0387 101.802 46.9393 102.171C46.8427 102.54 46.7418 102.888 46.6367 103.215C46.5316 103.542 46.445 103.802 46.3768 103.995H45.6097C45.6467 103.813 45.695 103.573 45.7546 103.275C45.8143 102.976 45.8739 102.642 45.9336 102.273C45.9961 101.907 46.0472 101.532 46.087 101.148L46.1381 100.671H47.229ZM51.6172 101.983C50.9751 101.983 50.4283 101.809 49.9766 101.459C49.5249 101.107 49.1797 100.597 48.9411 99.9294C48.7024 99.2589 48.5831 98.4492 48.5831 97.5004C48.5831 96.5572 48.7024 95.7518 48.9411 95.0842C49.1825 94.4137 49.5291 93.9024 49.9808 93.5501C50.4354 93.195 50.9808 93.0174 51.6172 93.0174C52.2536 93.0174 52.7976 93.195 53.2493 93.5501C53.7038 93.9024 54.0504 94.4137 54.2891 95.0842C54.5305 95.7518 54.6513 96.5572 54.6513 97.5004C54.6513 98.4492 54.532 99.2589 54.2933 99.9294C54.0547 100.597 53.7095 101.107 53.2578 101.459C52.8061 101.809 52.2592 101.983 51.6172 101.983ZM51.6172 101.046C52.2536 101.046 52.7479 100.739 53.1001 100.125C53.4524 99.5117 53.6286 98.6367 53.6286 97.5004C53.6286 96.7447 53.5476 96.1012 53.3857 95.57C53.2266 95.0387 52.9964 94.6339 52.6953 94.3555C52.397 94.0771 52.0376 93.9379 51.6172 93.9379C50.9865 93.9379 50.4936 94.249 50.1385 94.8711C49.7834 95.4904 49.6058 96.3669 49.6058 97.5004C49.6058 98.2561 49.6854 98.8981 49.8445 99.4265C50.0036 99.9549 50.2322 100.357 50.5305 100.632C50.8317 100.908 51.1939 101.046 51.6172 101.046ZM59.1172 101.983C58.4751 101.983 57.9283 101.809 57.4766 101.459C57.0249 101.107 56.6797 100.597 56.4411 99.9294C56.2024 99.2589 56.0831 98.4492 56.0831 97.5004C56.0831 96.5572 56.2024 95.7518 56.4411 95.0842C56.6825 94.4137 57.0291 93.9024 57.4808 93.5501C57.9354 93.195 58.4808 93.0174 59.1172 93.0174C59.7536 93.0174 60.2976 93.195 60.7493 93.5501C61.2038 93.9024 61.5504 94.4137 61.7891 95.0842C62.0305 95.7518 62.1513 96.5572 62.1513 97.5004C62.1513 98.4492 62.032 99.2589 61.7933 99.9294C61.5547 100.597 61.2095 101.107 60.7578 101.459C60.3061 101.809 59.7592 101.983 59.1172 101.983ZM59.1172 101.046C59.7536 101.046 60.2479 100.739 60.6001 100.125C60.9524 99.5117 61.1286 98.6367 61.1286 97.5004C61.1286 96.7447 61.0476 96.1012 60.8857 95.57C60.7266 95.0387 60.4964 94.6339 60.1953 94.3555C59.897 94.0771 59.5376 93.9379 59.1172 93.9379C58.4865 93.9379 57.9936 94.249 57.6385 94.8711C57.2834 95.4904 57.1058 96.3669 57.1058 97.5004C57.1058 98.2561 57.1854 98.8981 57.3445 99.4265C57.5036 99.9549 57.7322 100.357 58.0305 100.632C58.3317 100.908 58.6939 101.046 59.1172 101.046ZM66.6172 101.983C65.9751 101.983 65.4283 101.809 64.9766 101.459C64.5249 101.107 64.1797 100.597 63.9411 99.9294C63.7024 99.2589 63.5831 98.4492 63.5831 97.5004C63.5831 96.5572 63.7024 95.7518 63.9411 95.0842C64.1825 94.4137 64.5291 93.9024 64.9808 93.5501C65.4354 93.195 65.9808 93.0174 66.6172 93.0174C67.2536 93.0174 67.7976 93.195 68.2493 93.5501C68.7038 93.9024 69.0504 94.4137 69.2891 95.0842C69.5305 95.7518 69.6513 96.5572 69.6513 97.5004C69.6513 98.4492 69.532 99.2589 69.2933 99.9294C69.0547 100.597 68.7095 101.107 68.2578 101.459C67.8061 101.809 67.2592 101.983 66.6172 101.983ZM66.6172 101.046C67.2536 101.046 67.7479 100.739 68.1001 100.125C68.4524 99.5117 68.6286 98.6367 68.6286 97.5004C68.6286 96.7447 68.5476 96.1012 68.3857 95.57C68.2266 95.0387 67.9964 94.6339 67.6953 94.3555C67.397 94.0771 67.0376 93.9379 66.6172 93.9379C65.9865 93.9379 65.4936 94.249 65.1385 94.8711C64.7834 95.4904 64.6058 96.3669 64.6058 97.5004C64.6058 98.2561 64.6854 98.8981 64.8445 99.4265C65.0036 99.9549 65.2322 100.357 65.5305 100.632C65.8317 100.908 66.1939 101.046 66.6172 101.046Z" fill="black" fill-opacity="0.6"/>
<path d="M314.354 182.354C314.549 182.158 314.549 181.842 314.354 181.646L311.172 178.464C310.976 178.269 310.66 178.269 310.464 178.464C310.269 178.66 310.269 178.976 310.464 179.172L313.293 182L310.464 184.828C310.269 185.024 310.269 185.34 310.464 185.536C310.66 185.731 310.976 185.731 311.172 185.536L314.354 182.354ZM298 182.5H314V181.5H298V182.5Z" fill="black" fill-opacity="0.7"/>
<path d="M79 30.5H314" stroke="#919191" stroke-opacity="0.8" stroke-dasharray="2 2"/>
<path d="M79 98.5H241" stroke="#919191" stroke-opacity="0.8" stroke-dasharray="2 2"/>
<path d="M314 43.4964C314 44.5882 313.579 45.6353 312.828 46.4074C312.078 47.1794 311.061 47.6132 310 47.6132C308.939 47.6132 307.922 47.1794 307.172 46.4074C306.421 45.6353 306 44.5882 306 43.4964C306 42.4045 306.421 41.3574 307.172 40.5854C307.922 39.8133 308.939 39.3796 310 39.3796C311.061 39.3796 312.078 39.8133 312.828 40.5854C313.579 41.3574 314 42.4045 314 43.4964" fill="black"/>
<path d="M289 162.883C289 163.975 288.579 165.022 287.828 165.794C287.078 166.566 286.061 167 285 167C283.939 167 282.922 166.566 282.172 165.794C281.421 165.022 281 163.975 281 162.883C281 161.791 281.421 160.744 282.172 159.972C282.922 159.2 283.939 158.766 285 158.766C286.061 158.766 287.078 159.2 287.828 159.972C288.579 160.744 289 161.791 289 162.883" fill="#AC1919"/>
<path d="M264 44.5255C264 45.6174 263.579 46.6645 262.828 47.4365C262.078 48.2086 261.061 48.6423 260 48.6423C258.939 48.6423 257.922 48.2086 257.172 47.4365C256.421 46.6645 256 45.6174 256 44.5255C256 43.4337 256.421 42.3866 257.172 41.6145C257.922 40.8425 258.939 40.4088 260 40.4088C261.061 40.4088 262.078 40.8425 262.828 41.6145C263.579 42.3866 264 43.4337 264 44.5255" fill="#939393"/>
<path d="M238 30.1168C238 31.2086 237.579 32.2557 236.828 33.0278C236.078 33.7998 235.061 34.2336 234 34.2336C232.939 34.2336 231.922 33.7998 231.172 33.0278C230.421 32.2557 230 31.2086 230 30.1168C230 29.0249 230.421 27.9778 231.172 27.2058C231.922 26.4337 232.939 26 234 26C235.061 26 236.078 26.4337 236.828 27.2058C237.579 27.9778 238 29.0249 238 30.1168" fill="#939393"/>
<path d="M213 51.7299C213 52.8218 212.579 53.8689 211.828 54.641C211.078 55.413 210.061 55.8467 209 55.8467C207.939 55.8467 206.922 55.413 206.172 54.641C205.421 53.8689 205 52.8218 205 51.7299C205 50.6381 205.421 49.591 206.172 48.8189C206.922 48.0469 207.939 47.6132 209 47.6132C210.061 47.6132 211.078 48.0469 211.828 48.8189C212.579 49.591 213 50.6381 213 51.7299" fill="#939393"/>
<path d="M188 63.0511C188 64.143 187.579 65.1901 186.828 65.9621C186.078 66.7342 185.061 67.1679 184 67.1679C182.939 67.1679 181.922 66.7342 181.172 65.9621C180.421 65.1901 180 64.143 180 63.0511C180 61.9593 180.421 60.9122 181.172 60.1401C181.922 59.3681 182.939 58.9343 184 58.9343C185.061 58.9343 186.078 59.3681 186.828 60.1401C187.579 60.9122 188 61.9593 188 63.0511" fill="#939393"/>
<path d="M163 32.1752C163 33.267 162.579 34.3142 161.828 35.0862C161.078 35.8583 160.061 36.292 159 36.292C157.939 36.292 156.922 35.8583 156.172 35.0862C155.421 34.3142 155 33.267 155 32.1752C155 31.0834 155.421 30.0362 156.172 29.2642C156.922 28.4921 157.939 28.0584 159 28.0584C160.061 28.0584 161.078 28.4921 161.828 29.2642C162.579 30.0362 163 31.0834 163 32.1752" fill="#939393"/>
<path d="M137 128.92C137 130.012 136.579 131.059 135.828 131.831C135.078 132.603 134.061 133.036 133 133.036C131.939 133.036 130.922 132.603 130.172 131.831C129.421 131.059 129 130.012 129 128.92C129 127.828 129.421 126.781 130.172 126.009C130.922 125.237 131.939 124.803 133 124.803C134.061 124.803 135.078 125.237 135.828 126.009C136.579 126.781 137 127.828 137 128.92" fill="#939393"/>
<path d="M112 72.3139C112 73.4057 111.579 74.4528 110.828 75.2249C110.078 75.9969 109.061 76.4307 108 76.4307C106.939 76.4307 105.922 75.9969 105.172 75.2249C104.421 74.4528 104 73.4057 104 72.3139C104 71.222 104.421 70.1749 105.172 69.4029C105.922 68.6308 106.939 68.1971 108 68.1971C109.061 68.1971 110.078 68.6308 110.828 69.4029C111.579 70.1749 112 71.222 112 72.3139" fill="#939393"/>
<path d="M87 106.277C87 107.369 86.5786 108.416 85.8284 109.188C85.0783 109.96 84.0609 110.394 83 110.394C81.9391 110.394 80.9217 109.96 80.1716 109.188C79.4214 108.416 79 107.369 79 106.277C79 105.186 79.4214 104.138 80.1716 103.366C80.9217 102.594 81.9391 102.161 83 102.161C84.0609 102.161 85.0783 102.594 85.8284 103.366C86.5786 104.138 87 105.186 87 106.277" fill="#939393"/>
</g>
<defs>
<clipPath id="clip0_460_47">
<rect width="315" height="190" fill="white"/>
</clipPath>
</defs>
</svg>
