<svg viewBox="0 0 315 190" fill="none" xmlns="http://www.w3.org/2000/svg">
<line x1="79" y1="160.5" x2="315" y2="160.5" stroke="#919191" stroke-opacity="0.8" stroke-dasharray="2 2"/>
<text fill="#AC1919" xml:space="preserve" style="white-space: pre" font-family="Inter" font-size="13" font-style="italic" letter-spacing="0em"><tspan x="254" y="85.7273">Woman </tspan><tspan x="254" y="101.727">Hollering </tspan><tspan x="254" y="117.727">Creek</tspan></text>
<text fill="black" xml:space="preserve" style="white-space: pre" font-family="Inter" font-size="13" font-style="italic" letter-spacing="0em"><tspan x="98.1006" y="12.7273">The Things They Carried</tspan></text>
<path d="M307.896 26.9891C308.166 27.0464 308.432 26.8739 308.489 26.6038L309.423 22.2017C309.48 21.9316 309.308 21.6661 309.038 21.6088C308.767 21.5515 308.502 21.7241 308.445 21.9942L307.615 25.9071L303.702 25.0771C303.432 25.0198 303.166 25.1923 303.109 25.4625C303.052 25.7326 303.224 25.998 303.494 26.0553L307.896 26.9891ZM254.194 9.89556C265.352 18.5178 275.651 17.7493 284.646 17.3746C289.155 17.1867 293.29 17.1005 297.103 18.2747C300.886 19.44 304.388 21.8607 307.581 26.7725L308.419 26.2275C305.112 21.1393 301.426 18.56 297.397 17.319C293.397 16.087 289.095 16.1883 284.604 16.3754C275.599 16.7506 265.648 17.4821 254.806 9.10427L254.194 9.89556Z" fill="black" fill-opacity="0.4"/>
<text transform="translate(51 175)" fill="black" fill-opacity="0.6" xml:space="preserve" style="white-space: pre" font-family="Inter" font-size="12" font-weight="600" letter-spacing="0.05em"><tspan x="58.4344" y="11.8636">MORE ASSIGNED IN SYLLABI</tspan></text>
<path d="M284.695 148.396C284.914 148.565 285.228 148.524 285.396 148.305L288.143 144.741C288.311 144.522 288.27 144.208 288.052 144.039C287.833 143.871 287.519 143.911 287.35 144.13L284.909 147.299L281.741 144.857C281.522 144.689 281.208 144.73 281.039 144.948C280.871 145.167 280.911 145.481 281.13 145.65L284.695 148.396ZM285.496 147.936C284.589 140.942 279.627 136.582 273.382 133.55C267.148 130.524 259.505 128.759 253.068 127.017C249.834 126.142 246.909 125.275 244.58 124.26C242.235 123.239 240.587 122.105 239.8 120.749C239.042 119.445 239.023 117.826 240.219 115.647C241.425 113.447 243.837 110.745 247.822 107.382L247.177 106.618C243.163 110.005 240.637 112.803 239.342 115.166C238.035 117.549 237.95 119.555 238.935 121.251C239.89 122.895 241.792 124.136 244.18 125.177C246.583 126.225 249.572 127.108 252.807 127.983C259.307 129.741 266.821 131.476 272.946 134.45C279.06 137.418 283.661 141.558 284.504 148.064L285.496 147.936Z" fill="#AC1919" fill-opacity="0.4"/>
<text fill="black" fill-opacity="0.6" xml:space="preserve" style="white-space: pre" font-family="Inter" font-size="12" letter-spacing="0em"><tspan x="20.7266" y="33.8636">#1 Most-</tspan><tspan x="20.2812" y="48.8636">Rated on </tspan><tspan x="8.57422" y="63.8636">Goodreads</tspan></text>
<text fill="black" fill-opacity="0.6" xml:space="preserve" style="white-space: pre" font-family="Inter" font-size="12" letter-spacing="0em"><tspan x="30.6055" y="163.864">#2,000</tspan></text>
<text fill="black" fill-opacity="0.6" xml:space="preserve" style="white-space: pre" font-family="Inter" font-size="12" letter-spacing="0em"><tspan x="30.9043" y="101.864">#1,000</tspan></text>
<path d="M314.926 35.821C314.926 36.8818 314.504 37.8992 313.754 38.6494C313.004 39.3995 311.986 39.821 310.926 39.821C309.865 39.821 308.847 39.3995 308.097 38.6494C307.347 37.8992 306.926 36.8818 306.926 35.821C306.926 34.7601 307.347 33.7427 308.097 32.9925C308.847 32.2424 309.865 31.821 310.926 31.821C311.986 31.821 313.004 32.2424 313.754 32.9925C314.504 33.7427 314.926 34.7601 314.926 35.821" fill="black"/>
<path d="M289.614 156.698C289.614 157.758 289.192 158.776 288.442 159.526C287.692 160.276 286.674 160.698 285.614 160.698C284.553 160.698 283.535 160.276 282.785 159.526C282.035 158.776 281.614 157.758 281.614 156.698C281.614 155.637 282.035 154.619 282.785 153.869C283.535 153.119 284.553 152.698 285.614 152.698C286.674 152.698 287.692 153.119 288.442 153.869C289.192 154.619 289.614 155.637 289.614 156.698" fill="#AC1919"/>
<path d="M264.302 38.5526C264.302 39.6135 263.88 40.6309 263.13 41.3811C262.38 42.1312 261.362 42.5526 260.302 42.5526C259.241 42.5526 258.223 42.1312 257.473 41.3811C256.723 40.6309 256.302 39.6135 256.302 38.5526C256.302 37.4918 256.723 36.4744 257.473 35.7242C258.223 34.9741 259.241 34.5526 260.302 34.5526C261.362 34.5526 262.38 34.9741 263.13 35.7242C263.88 36.4744 264.302 37.4918 264.302 38.5526" fill="black" fill-opacity="0.4"/>
<path d="M238.989 34.393C238.989 35.4539 238.568 36.4713 237.818 37.2215C237.068 37.9716 236.05 38.393 234.989 38.393C233.928 38.393 232.911 37.9716 232.161 37.2215C231.411 36.4713 230.989 35.4539 230.989 34.393C230.989 33.3322 231.411 32.3148 232.161 31.5646C232.911 30.8145 233.928 30.393 234.989 30.393C236.05 30.393 237.068 30.8145 237.818 31.5646C238.568 32.3148 238.989 33.3322 238.989 34.393" fill="black" fill-opacity="0.4"/>
<path d="M213.677 40.7256C213.677 41.7864 213.256 42.8038 212.505 43.554C211.755 44.3041 210.738 44.7256 209.677 44.7256C208.616 44.7256 207.599 44.3041 206.849 43.554C206.098 42.8038 205.677 41.7864 205.677 40.7256C205.677 39.6647 206.098 38.6473 206.849 37.8971C207.599 37.147 208.616 36.7256 209.677 36.7256C210.738 36.7256 211.755 37.147 212.505 37.8971C213.256 38.6473 213.677 39.6647 213.677 40.7256" fill="black" fill-opacity="0.4"/>
<path d="M188.365 48.2998C188.365 49.3606 187.943 50.378 187.193 51.1282C186.443 51.8783 185.426 52.2998 184.365 52.2998C183.304 52.2998 182.286 51.8783 181.536 51.1282C180.786 50.378 180.365 49.3606 180.365 48.2998C180.365 47.2389 180.786 46.2215 181.536 45.4713C182.286 44.7212 183.304 44.2998 184.365 44.2998C185.426 44.2998 186.443 44.7212 187.193 45.4713C187.943 46.2215 188.365 47.2389 188.365 48.2998" fill="black" fill-opacity="0.4"/>
<path d="M163.053 34.6414C163.053 35.7022 162.631 36.7196 161.881 37.4698C161.131 38.2199 160.114 38.6414 159.053 38.6414C157.992 38.6414 156.974 38.2199 156.224 37.4698C155.474 36.7196 155.053 35.7022 155.053 34.6414C155.053 33.5805 155.474 32.5631 156.224 31.8129C156.974 31.0628 157.992 30.6414 159.053 30.6414C160.114 30.6414 161.131 31.0628 161.881 31.8129C162.631 32.5631 163.053 33.5805 163.053 34.6414" fill="black" fill-opacity="0.4"/>
<path d="M137.74 90.2062C137.74 91.267 137.319 92.2844 136.569 93.0346C135.819 93.7847 134.801 94.2062 133.74 94.2062C132.68 94.2062 131.662 93.7847 130.912 93.0346C130.162 92.2844 129.74 91.267 129.74 90.2062C129.74 89.1453 130.162 88.1279 130.912 87.3777C131.662 86.6276 132.68 86.2062 133.74 86.2062C134.801 86.2062 135.819 86.6276 136.569 87.3777C137.319 88.1279 137.74 89.1453 137.74 90.2062" fill="black" fill-opacity="0.4"/>
<path d="M112.428 66.8006C112.428 67.8615 112.007 68.8789 111.257 69.6291C110.507 70.3792 109.489 70.8006 108.428 70.8006C107.368 70.8006 106.35 70.3792 105.6 69.6291C104.85 68.8789 104.428 67.8615 104.428 66.8006C104.428 65.7398 104.85 64.7224 105.6 63.9722C106.35 63.2221 107.368 62.8006 108.428 62.8006C109.489 62.8006 110.507 63.2221 111.257 63.9722C112.007 64.7224 112.428 65.7398 112.428 66.8006" fill="black" fill-opacity="0.4"/>
<path d="M87.1165 82.0732C87.1165 83.1341 86.695 84.1515 85.9449 84.9016C85.1947 85.6518 84.1773 86.0732 83.1165 86.0732C82.0556 86.0732 81.0382 85.6518 80.288 84.9016C79.5379 84.1515 79.1165 83.1341 79.1165 82.0732C79.1165 81.0123 79.5379 79.9949 80.288 79.2448C81.0382 78.4946 82.0556 78.0732 83.1165 78.0732C84.1773 78.0732 85.1947 78.4946 85.9449 79.2448C86.695 79.9949 87.1165 81.0123 87.1165 82.0732" fill="black" fill-opacity="0.4"/>
<path d="M314.354 182.354C314.549 182.158 314.549 181.842 314.354 181.646L311.172 178.464C310.976 178.269 310.66 178.269 310.464 178.464C310.269 178.66 310.269 178.976 310.464 179.172L313.293 182L310.464 184.828C310.269 185.024 310.269 185.34 310.464 185.536C310.66 185.731 310.976 185.731 311.172 185.536L314.354 182.354ZM298 182.5L314 182.5L314 181.5L298 181.5L298 182.5Z" fill="black" fill-opacity="0.7"/>
<line x1="79" y1="30.5" x2="314" y2="30.5" stroke="#919191" stroke-opacity="0.8" stroke-dasharray="2 2"/>
<line x1="79" y1="98.5" x2="241" y2="98.5" stroke="#919191" stroke-opacity="0.8" stroke-dasharray="2 2"/>
</svg>
